solid OpenSCAD_Model
  facet normal 0 -0.19509 -0.980785
    outer loop
      vertex -38.1 -3.6157 -13.494
      vertex 38.1 -1.82345 -13.8505
      vertex 38.1 -3.6157 -13.494
    endloop
  endfacet
  facet normal -0 -0.19509 -0.980785
    outer loop
      vertex 38.1 -1.82345 -13.8505
      vertex -38.1 -3.6157 -13.494
      vertex -38.1 -1.82345 -13.8505
    endloop
  endfacet
  facet normal 0 -0.831452 -0.555596
    outer loop
      vertex -38.1 -11.0831 -8.5044
      vertex 38.1 -12.0984 -6.985
      vertex -38.1 -12.0984 -6.985
    endloop
  endfacet
  facet normal 0 -0.831452 -0.555596
    outer loop
      vertex 38.1 -12.0984 -6.985
      vertex -38.1 -11.0831 -8.5044
      vertex 38.1 -11.0831 -8.5044
    endloop
  endfacet
  facet normal -0 0.980785 0.19509
    outer loop
      vertex -38.1 13.8505 1.82345
      vertex -3.6157 13.494 3.6157
      vertex -1.82345 13.8505 1.82345
    endloop
  endfacet
  facet normal 0 0.980785 0.19509
    outer loop
      vertex -3.6157 13.494 3.6157
      vertex -38.1 13.8505 1.82345
      vertex -38.1 13.494 3.6157
    endloop
  endfacet
  facet normal 0 0.980785 0.19509
    outer loop
      vertex 38.1 13.8505 1.82345
      vertex 3.6157 13.494 3.6157
      vertex 38.1 13.494 3.6157
    endloop
  endfacet
  facet normal 0 0.980785 0.19509
    outer loop
      vertex 3.6157 13.494 3.6157
      vertex 38.1 13.8505 1.82345
      vertex 1.82345 13.8505 1.82345
    endloop
  endfacet
  facet normal 0 -0.896877 -0.442279
    outer loop
      vertex -38.1 -12.0984 -6.985
      vertex 38.1 -12.9066 -5.34609
      vertex -38.1 -12.9066 -5.34609
    endloop
  endfacet
  facet normal 0 -0.896877 -0.442279
    outer loop
      vertex 38.1 -12.9066 -5.34609
      vertex -38.1 -12.0984 -6.985
      vertex 38.1 -12.0984 -6.985
    endloop
  endfacet
  facet normal 0 0.0653948 -0.997859
    outer loop
      vertex -38.1 0 -13.97
      vertex 38.1 1.82345 -13.8505
      vertex 38.1 0 -13.97
    endloop
  endfacet
  facet normal 0 0.0653948 -0.997859
    outer loop
      vertex 38.1 1.82345 -13.8505
      vertex -38.1 0 -13.97
      vertex -38.1 1.82345 -13.8505
    endloop
  endfacet
  facet normal 0 -0.321445 -0.946928
    outer loop
      vertex -38.1 -5.34609 -12.9066
      vertex 38.1 -3.6157 -13.494
      vertex 38.1 -5.34609 -12.9066
    endloop
  endfacet
  facet normal -0 -0.321445 -0.946928
    outer loop
      vertex 38.1 -3.6157 -13.494
      vertex -38.1 -5.34609 -12.9066
      vertex -38.1 -3.6157 -13.494
    endloop
  endfacet
  facet normal -0 0.555596 0.831452
    outer loop
      vertex -38.1 8.5044 11.0831
      vertex -12.0984 6.985 12.0984
      vertex -11.0831 8.5044 11.0831
    endloop
  endfacet
  facet normal 0 0.555596 0.831452
    outer loop
      vertex -12.0984 6.985 12.0984
      vertex -38.1 8.5044 11.0831
      vertex -38.1 6.985 12.0984
    endloop
  endfacet
  facet normal 0 0.555596 0.831452
    outer loop
      vertex 38.1 8.5044 11.0831
      vertex 12.0984 6.985 12.0984
      vertex 38.1 6.985 12.0984
    endloop
  endfacet
  facet normal 0 0.555596 0.831452
    outer loop
      vertex 12.0984 6.985 12.0984
      vertex 38.1 8.5044 11.0831
      vertex 11.0831 8.5044 11.0831
    endloop
  endfacet
  facet normal 0 0.896877 -0.442279
    outer loop
      vertex 38.1 12.0984 -6.985
      vertex -38.1 12.9066 -5.34609
      vertex 38.1 12.9066 -5.34609
    endloop
  endfacet
  facet normal 0 0.896877 -0.442279
    outer loop
      vertex -38.1 12.9066 -5.34609
      vertex 38.1 12.0984 -6.985
      vertex -38.1 12.0984 -6.985
    endloop
  endfacet
  facet normal 0 -0.321445 0.946928
    outer loop
      vertex -38.1 -5.34609 12.9066
      vertex -13.494 -3.6157 13.494
      vertex -38.1 -3.6157 13.494
    endloop
  endfacet
  facet normal 0 -0.321445 0.946928
    outer loop
      vertex -13.494 -3.6157 13.494
      vertex -38.1 -5.34609 12.9066
      vertex -12.9066 -5.34609 12.9066
    endloop
  endfacet
  facet normal 0 -0.321445 0.946928
    outer loop
      vertex 13.494 -3.6157 13.494
      vertex 38.1 -5.34609 12.9066
      vertex 38.1 -3.6157 13.494
    endloop
  endfacet
  facet normal 0 -0.321445 0.946928
    outer loop
      vertex 38.1 -5.34609 12.9066
      vertex 13.494 -3.6157 13.494
      vertex 12.9066 -5.34609 12.9066
    endloop
  endfacet
  facet normal 0 0.896877 0.442279
    outer loop
      vertex 38.1 12.9066 5.34609
      vertex 6.985 12.0984 6.985
      vertex 38.1 12.0984 6.985
    endloop
  endfacet
  facet normal 0 0.896877 0.442279
    outer loop
      vertex 6.985 12.0984 6.985
      vertex 38.1 12.9066 5.34609
      vertex 5.34609 12.9066 5.34609
    endloop
  endfacet
  facet normal -0 0.896877 0.442279
    outer loop
      vertex -38.1 12.9066 5.34609
      vertex -6.985 12.0984 6.985
      vertex -5.34609 12.9066 5.34609
    endloop
  endfacet
  facet normal 0 0.896877 0.442279
    outer loop
      vertex -6.985 12.0984 6.985
      vertex -38.1 12.9066 5.34609
      vertex -38.1 12.0984 6.985
    endloop
  endfacet
  facet normal 0 0.831452 0.555596
    outer loop
      vertex 38.1 12.0984 6.985
      vertex 8.5044 11.0831 8.5044
      vertex 38.1 11.0831 8.5044
    endloop
  endfacet
  facet normal 0 0.831452 0.555596
    outer loop
      vertex 8.5044 11.0831 8.5044
      vertex 38.1 12.0984 6.985
      vertex 6.985 12.0984 6.985
    endloop
  endfacet
  facet normal -0 0.831452 0.555596
    outer loop
      vertex -38.1 12.0984 6.985
      vertex -8.5044 11.0831 8.5044
      vertex -6.985 12.0984 6.985
    endloop
  endfacet
  facet normal 0 0.831452 0.555596
    outer loop
      vertex -8.5044 11.0831 8.5044
      vertex -38.1 12.0984 6.985
      vertex -38.1 11.0831 8.5044
    endloop
  endfacet
  facet normal 1 0 0
    outer loop
      vertex 38.1 13.8505 1.82345
      vertex 38.1 13.8505 -1.82345
      vertex 38.1 13.97 0
    endloop
  endfacet
  facet normal 1 0 0
    outer loop
      vertex 38.1 13.494 3.6157
      vertex 38.1 13.8505 -1.82345
      vertex 38.1 13.8505 1.82345
    endloop
  endfacet
  facet normal 1 0 0
    outer loop
      vertex 38.1 13.494 3.6157
      vertex 38.1 13.494 -3.6157
      vertex 38.1 13.8505 -1.82345
    endloop
  endfacet
  facet normal 1 0 0
    outer loop
      vertex 38.1 12.9066 5.34609
      vertex 38.1 13.494 -3.6157
      vertex 38.1 13.494 3.6157
    endloop
  endfacet
  facet normal 1 0 0
    outer loop
      vertex 38.1 12.9066 5.34609
      vertex 38.1 12.9066 -5.34609
      vertex 38.1 13.494 -3.6157
    endloop
  endfacet
  facet normal 1 0 0
    outer loop
      vertex 38.1 12.0984 6.985
      vertex 38.1 12.9066 -5.34609
      vertex 38.1 12.9066 5.34609
    endloop
  endfacet
  facet normal 1 0 0
    outer loop
      vertex 38.1 12.0984 6.985
      vertex 38.1 12.0984 -6.985
      vertex 38.1 12.9066 -5.34609
    endloop
  endfacet
  facet normal 1 0 0
    outer loop
      vertex 38.1 11.0831 8.5044
      vertex 38.1 12.0984 -6.985
      vertex 38.1 12.0984 6.985
    endloop
  endfacet
  facet normal 1 0 0
    outer loop
      vertex 38.1 11.0831 8.5044
      vertex 38.1 11.0831 -8.5044
      vertex 38.1 12.0984 -6.985
    endloop
  endfacet
  facet normal 1 0 0
    outer loop
      vertex 38.1 9.87828 9.87828
      vertex 38.1 11.0831 -8.5044
      vertex 38.1 11.0831 8.5044
    endloop
  endfacet
  facet normal 1 0 0
    outer loop
      vertex 38.1 9.87828 9.87828
      vertex 38.1 9.87828 -9.87828
      vertex 38.1 11.0831 -8.5044
    endloop
  endfacet
  facet normal 1 0 0
    outer loop
      vertex 38.1 8.5044 11.0831
      vertex 38.1 9.87828 -9.87828
      vertex 38.1 9.87828 9.87828
    endloop
  endfacet
  facet normal 1 0 0
    outer loop
      vertex 38.1 8.5044 11.0831
      vertex 38.1 8.5044 -11.0831
      vertex 38.1 9.87828 -9.87828
    endloop
  endfacet
  facet normal 1 0 0
    outer loop
      vertex 38.1 6.985 12.0984
      vertex 38.1 8.5044 -11.0831
      vertex 38.1 8.5044 11.0831
    endloop
  endfacet
  facet normal 1 0 0
    outer loop
      vertex 38.1 6.985 12.0984
      vertex 38.1 6.985 -12.0984
      vertex 38.1 8.5044 -11.0831
    endloop
  endfacet
  facet normal 1 0 0
    outer loop
      vertex 38.1 5.34609 12.9066
      vertex 38.1 6.985 -12.0984
      vertex 38.1 6.985 12.0984
    endloop
  endfacet
  facet normal 1 0 0
    outer loop
      vertex 38.1 5.34609 12.9066
      vertex 38.1 5.34609 -12.9066
      vertex 38.1 6.985 -12.0984
    endloop
  endfacet
  facet normal 1 0 0
    outer loop
      vertex 38.1 3.6157 13.494
      vertex 38.1 5.34609 -12.9066
      vertex 38.1 5.34609 12.9066
    endloop
  endfacet
  facet normal 1 0 0
    outer loop
      vertex 38.1 3.6157 13.494
      vertex 38.1 3.6157 -13.494
      vertex 38.1 5.34609 -12.9066
    endloop
  endfacet
  facet normal 1 0 0
    outer loop
      vertex 38.1 1.82345 13.8505
      vertex 38.1 3.6157 -13.494
      vertex 38.1 3.6157 13.494
    endloop
  endfacet
  facet normal 1 0 0
    outer loop
      vertex 38.1 1.82345 13.8505
      vertex 38.1 1.82345 -13.8505
      vertex 38.1 3.6157 -13.494
    endloop
  endfacet
  facet normal 1 0 0
    outer loop
      vertex 38.1 0 13.97
      vertex 38.1 1.82345 -13.8505
      vertex 38.1 1.82345 13.8505
    endloop
  endfacet
  facet normal 1 0 0
    outer loop
      vertex 38.1 0 13.97
      vertex 38.1 0 -13.97
      vertex 38.1 1.82345 -13.8505
    endloop
  endfacet
  facet normal 1 -0 0
    outer loop
      vertex 38.1 -1.82345 13.8505
      vertex 38.1 0 -13.97
      vertex 38.1 0 13.97
    endloop
  endfacet
  facet normal 1 0 0
    outer loop
      vertex 38.1 -1.82345 13.8505
      vertex 38.1 -1.82345 -13.8505
      vertex 38.1 0 -13.97
    endloop
  endfacet
  facet normal 1 -0 0
    outer loop
      vertex 38.1 -3.6157 13.494
      vertex 38.1 -1.82345 -13.8505
      vertex 38.1 -1.82345 13.8505
    endloop
  endfacet
  facet normal 1 0 0
    outer loop
      vertex 38.1 -3.6157 13.494
      vertex 38.1 -3.6157 -13.494
      vertex 38.1 -1.82345 -13.8505
    endloop
  endfacet
  facet normal 1 -0 0
    outer loop
      vertex 38.1 -5.34609 12.9066
      vertex 38.1 -3.6157 -13.494
      vertex 38.1 -3.6157 13.494
    endloop
  endfacet
  facet normal 1 0 0
    outer loop
      vertex 38.1 -5.34609 12.9066
      vertex 38.1 -5.34609 -12.9066
      vertex 38.1 -3.6157 -13.494
    endloop
  endfacet
  facet normal 1 -0 0
    outer loop
      vertex 38.1 -6.985 12.0984
      vertex 38.1 -5.34609 -12.9066
      vertex 38.1 -5.34609 12.9066
    endloop
  endfacet
  facet normal 1 0 0
    outer loop
      vertex 38.1 -6.985 12.0984
      vertex 38.1 -6.985 -12.0984
      vertex 38.1 -5.34609 -12.9066
    endloop
  endfacet
  facet normal 1 -0 0
    outer loop
      vertex 38.1 -8.5044 11.0831
      vertex 38.1 -6.985 -12.0984
      vertex 38.1 -6.985 12.0984
    endloop
  endfacet
  facet normal 1 0 0
    outer loop
      vertex 38.1 -8.5044 11.0831
      vertex 38.1 -8.5044 -11.0831
      vertex 38.1 -6.985 -12.0984
    endloop
  endfacet
  facet normal 1 -0 0
    outer loop
      vertex 38.1 -9.87828 9.87828
      vertex 38.1 -8.5044 -11.0831
      vertex 38.1 -8.5044 11.0831
    endloop
  endfacet
  facet normal 1 0 0
    outer loop
      vertex 38.1 -9.87828 9.87828
      vertex 38.1 -9.87828 -9.87828
      vertex 38.1 -8.5044 -11.0831
    endloop
  endfacet
  facet normal 1 -0 0
    outer loop
      vertex 38.1 -11.0831 8.5044
      vertex 38.1 -9.87828 -9.87828
      vertex 38.1 -9.87828 9.87828
    endloop
  endfacet
  facet normal 1 0 0
    outer loop
      vertex 38.1 -11.0831 8.5044
      vertex 38.1 -11.0831 -8.5044
      vertex 38.1 -9.87828 -9.87828
    endloop
  endfacet
  facet normal 1 -0 0
    outer loop
      vertex 38.1 -12.0984 6.985
      vertex 38.1 -11.0831 -8.5044
      vertex 38.1 -11.0831 8.5044
    endloop
  endfacet
  facet normal 1 0 0
    outer loop
      vertex 38.1 -12.0984 6.985
      vertex 38.1 -12.0984 -6.985
      vertex 38.1 -11.0831 -8.5044
    endloop
  endfacet
  facet normal 1 -0 0
    outer loop
      vertex 38.1 -12.9066 5.34609
      vertex 38.1 -12.0984 -6.985
      vertex 38.1 -12.0984 6.985
    endloop
  endfacet
  facet normal 1 0 0
    outer loop
      vertex 38.1 -12.9066 5.34609
      vertex 38.1 -12.9066 -5.34609
      vertex 38.1 -12.0984 -6.985
    endloop
  endfacet
  facet normal 1 -0 0
    outer loop
      vertex 38.1 -13.494 3.6157
      vertex 38.1 -12.9066 -5.34609
      vertex 38.1 -12.9066 5.34609
    endloop
  endfacet
  facet normal 1 0 0
    outer loop
      vertex 38.1 -13.494 3.6157
      vertex 38.1 -13.494 -3.6157
      vertex 38.1 -12.9066 -5.34609
    endloop
  endfacet
  facet normal 1 -0 0
    outer loop
      vertex 38.1 -13.8505 1.82345
      vertex 38.1 -13.494 -3.6157
      vertex 38.1 -13.494 3.6157
    endloop
  endfacet
  facet normal 1 0 0
    outer loop
      vertex 38.1 -13.8505 1.82345
      vertex 38.1 -13.8505 -1.82345
      vertex 38.1 -13.494 -3.6157
    endloop
  endfacet
  facet normal 1 0 -0
    outer loop
      vertex 38.1 -13.8505 -1.82345
      vertex 38.1 -13.8505 1.82345
      vertex 38.1 -13.97 0
    endloop
  endfacet
  facet normal 0 -0.946928 -0.321445
    outer loop
      vertex -38.1 -12.9066 -5.34609
      vertex 38.1 -13.494 -3.6157
      vertex -38.1 -13.494 -3.6157
    endloop
  endfacet
  facet normal 0 -0.946928 -0.321445
    outer loop
      vertex 38.1 -13.494 -3.6157
      vertex -38.1 -12.9066 -5.34609
      vertex 38.1 -12.9066 -5.34609
    endloop
  endfacet
  facet normal 0 -0.19509 0.980785
    outer loop
      vertex 13.8505 -1.82345 13.8505
      vertex 38.1 -3.6157 13.494
      vertex 38.1 -1.82345 13.8505
    endloop
  endfacet
  facet normal 0 -0.19509 0.980785
    outer loop
      vertex 38.1 -3.6157 13.494
      vertex 13.8505 -1.82345 13.8505
      vertex 13.494 -3.6157 13.494
    endloop
  endfacet
  facet normal 0 -0.19509 0.980785
    outer loop
      vertex -38.1 -3.6157 13.494
      vertex -13.8505 -1.82345 13.8505
      vertex -38.1 -1.82345 13.8505
    endloop
  endfacet
  facet normal 0 -0.19509 0.980785
    outer loop
      vertex -13.8505 -1.82345 13.8505
      vertex -38.1 -3.6157 13.494
      vertex -13.494 -3.6157 13.494
    endloop
  endfacet
  facet normal -0 0.946928 0.321445
    outer loop
      vertex -38.1 13.494 3.6157
      vertex -5.34609 12.9066 5.34609
      vertex -3.6157 13.494 3.6157
    endloop
  endfacet
  facet normal 0 0.946928 0.321445
    outer loop
      vertex -5.34609 12.9066 5.34609
      vertex -38.1 13.494 3.6157
      vertex -38.1 12.9066 5.34609
    endloop
  endfacet
  facet normal 0 0.946928 0.321445
    outer loop
      vertex 38.1 13.494 3.6157
      vertex 5.34609 12.9066 5.34609
      vertex 38.1 12.9066 5.34609
    endloop
  endfacet
  facet normal 0 0.946928 0.321445
    outer loop
      vertex 5.34609 12.9066 5.34609
      vertex 38.1 13.494 3.6157
      vertex 3.6157 13.494 3.6157
    endloop
  endfacet
  facet normal 0 -0.0653948 0.997859
    outer loop
      vertex -38.1 -1.82345 13.8505
      vertex -13.97 0 13.97
      vertex -38.1 0 13.97
    endloop
  endfacet
  facet normal 0 -0.0653948 0.997859
    outer loop
      vertex -13.97 0 13.97
      vertex -38.1 -1.82345 13.8505
      vertex -13.8505 -1.82345 13.8505
    endloop
  endfacet
  facet normal 0 -0.0653948 0.997859
    outer loop
      vertex 13.97 0 13.97
      vertex 38.1 -1.82345 13.8505
      vertex 38.1 0 13.97
    endloop
  endfacet
  facet normal 0 -0.0653948 0.997859
    outer loop
      vertex 38.1 -1.82345 13.8505
      vertex 13.97 0 13.97
      vertex 13.8505 -1.82345 13.8505
    endloop
  endfacet
  facet normal 0 0.0653948 0.997859
    outer loop
      vertex 38.1 1.82345 13.8505
      vertex 13.97 0 13.97
      vertex 38.1 0 13.97
    endloop
  endfacet
  facet normal 0 0.0653948 0.997859
    outer loop
      vertex 13.97 0 13.97
      vertex 38.1 1.82345 13.8505
      vertex 13.8505 1.82345 13.8505
    endloop
  endfacet
  facet normal -0 0.0653948 0.997859
    outer loop
      vertex -38.1 1.82345 13.8505
      vertex -13.97 0 13.97
      vertex -13.8505 1.82345 13.8505
    endloop
  endfacet
  facet normal 0 0.0653948 0.997859
    outer loop
      vertex -13.97 0 13.97
      vertex -38.1 1.82345 13.8505
      vertex -38.1 0 13.97
    endloop
  endfacet
  facet normal 0 0.19509 -0.980785
    outer loop
      vertex -38.1 1.82345 -13.8505
      vertex 38.1 3.6157 -13.494
      vertex 38.1 1.82345 -13.8505
    endloop
  endfacet
  facet normal 0 0.19509 -0.980785
    outer loop
      vertex 38.1 3.6157 -13.494
      vertex -38.1 1.82345 -13.8505
      vertex -38.1 3.6157 -13.494
    endloop
  endfacet
  facet normal 0 0.321445 0.946928
    outer loop
      vertex 38.1 5.34609 12.9066
      vertex 13.494 3.6157 13.494
      vertex 38.1 3.6157 13.494
    endloop
  endfacet
  facet normal 0 0.321445 0.946928
    outer loop
      vertex 13.494 3.6157 13.494
      vertex 38.1 5.34609 12.9066
      vertex 12.9066 5.34609 12.9066
    endloop
  endfacet
  facet normal -0 0.321445 0.946928
    outer loop
      vertex -38.1 5.34609 12.9066
      vertex -13.494 3.6157 13.494
      vertex -12.9066 5.34609 12.9066
    endloop
  endfacet
  facet normal 0 0.321445 0.946928
    outer loop
      vertex -13.494 3.6157 13.494
      vertex -38.1 5.34609 12.9066
      vertex -38.1 3.6157 13.494
    endloop
  endfacet
  facet normal 0 -0.896877 0.442279
    outer loop
      vertex -38.1 -12.9066 5.34609
      vertex -6.985 -12.0984 6.985
      vertex -38.1 -12.0984 6.985
    endloop
  endfacet
  facet normal 0 -0.896877 0.442279
    outer loop
      vertex -6.985 -12.0984 6.985
      vertex -38.1 -12.9066 5.34609
      vertex -5.34609 -12.9066 5.34609
    endloop
  endfacet
  facet normal 0 -0.896877 0.442279
    outer loop
      vertex 38.1 -12.9066 5.34609
      vertex 6.985 -12.0984 6.985
      vertex 5.34609 -12.9066 5.34609
    endloop
  endfacet
  facet normal 0 -0.896877 0.442279
    outer loop
      vertex 6.985 -12.0984 6.985
      vertex 38.1 -12.9066 5.34609
      vertex 38.1 -12.0984 6.985
    endloop
  endfacet
  facet normal 0 -0.997859 -0.0653948
    outer loop
      vertex -38.1 -13.8505 -1.82345
      vertex 0 -13.97 0
      vertex -38.1 -13.97 0
    endloop
  endfacet
  facet normal -0 -0.997859 -0.0653948
    outer loop
      vertex 38.1 -13.8505 -1.82345
      vertex 0 -13.97 0
      vertex -38.1 -13.8505 -1.82345
    endloop
  endfacet
  facet normal 0 -0.997859 -0.0653948
    outer loop
      vertex 0 -13.97 0
      vertex 38.1 -13.8505 -1.82345
      vertex 38.1 -13.97 0
    endloop
  endfacet
  facet normal 0 -0.751851 -0.659333
    outer loop
      vertex -38.1 -9.87828 -9.87828
      vertex 38.1 -11.0831 -8.5044
      vertex -38.1 -11.0831 -8.5044
    endloop
  endfacet
  facet normal 0 -0.751851 -0.659333
    outer loop
      vertex 38.1 -11.0831 -8.5044
      vertex -38.1 -9.87828 -9.87828
      vertex 38.1 -9.87828 -9.87828
    endloop
  endfacet
  facet normal 0 0.555596 -0.831452
    outer loop
      vertex -38.1 6.985 -12.0984
      vertex 38.1 8.5044 -11.0831
      vertex 38.1 6.985 -12.0984
    endloop
  endfacet
  facet normal 0 0.555596 -0.831452
    outer loop
      vertex 38.1 8.5044 -11.0831
      vertex -38.1 6.985 -12.0984
      vertex -38.1 8.5044 -11.0831
    endloop
  endfacet
  facet normal 0 0.751851 -0.659333
    outer loop
      vertex 38.1 9.87828 -9.87828
      vertex -38.1 11.0831 -8.5044
      vertex 38.1 11.0831 -8.5044
    endloop
  endfacet
  facet normal 0 0.751851 -0.659333
    outer loop
      vertex -38.1 11.0831 -8.5044
      vertex 38.1 9.87828 -9.87828
      vertex -38.1 9.87828 -9.87828
    endloop
  endfacet
  facet normal 0 -0.0653948 -0.997859
    outer loop
      vertex -38.1 -1.82345 -13.8505
      vertex 38.1 0 -13.97
      vertex 38.1 -1.82345 -13.8505
    endloop
  endfacet
  facet normal -0 -0.0653948 -0.997859
    outer loop
      vertex 38.1 0 -13.97
      vertex -38.1 -1.82345 -13.8505
      vertex -38.1 0 -13.97
    endloop
  endfacet
  facet normal 0 0.659333 -0.751851
    outer loop
      vertex -38.1 8.5044 -11.0831
      vertex 38.1 9.87828 -9.87828
      vertex 38.1 8.5044 -11.0831
    endloop
  endfacet
  facet normal 0 0.659333 -0.751851
    outer loop
      vertex 38.1 9.87828 -9.87828
      vertex -38.1 8.5044 -11.0831
      vertex -38.1 9.87828 -9.87828
    endloop
  endfacet
  facet normal 0 -0.659333 -0.751851
    outer loop
      vertex -38.1 -9.87828 -9.87828
      vertex 38.1 -8.5044 -11.0831
      vertex 38.1 -9.87828 -9.87828
    endloop
  endfacet
  facet normal -0 -0.659333 -0.751851
    outer loop
      vertex 38.1 -8.5044 -11.0831
      vertex -38.1 -9.87828 -9.87828
      vertex -38.1 -8.5044 -11.0831
    endloop
  endfacet
  facet normal 0 -0.997859 0.0653948
    outer loop
      vertex 38.1 -13.97 0
      vertex 1.82345 -13.8505 1.82345
      vertex 0 -13.97 0
    endloop
  endfacet
  facet normal 0 -0.997859 0.0653948
    outer loop
      vertex 1.82345 -13.8505 1.82345
      vertex 38.1 -13.97 0
      vertex 38.1 -13.8505 1.82345
    endloop
  endfacet
  facet normal 0 -0.997859 0.0653948
    outer loop
      vertex -38.1 -13.97 0
      vertex -1.82345 -13.8505 1.82345
      vertex -38.1 -13.8505 1.82345
    endloop
  endfacet
  facet normal 0 -0.997859 0.0653948
    outer loop
      vertex -1.82345 -13.8505 1.82345
      vertex -38.1 -13.97 0
      vertex 0 -13.97 0
    endloop
  endfacet
  facet normal 0 0.442279 -0.896877
    outer loop
      vertex -38.1 5.34609 -12.9066
      vertex 38.1 6.985 -12.0984
      vertex 38.1 5.34609 -12.9066
    endloop
  endfacet
  facet normal 0 0.442279 -0.896877
    outer loop
      vertex 38.1 6.985 -12.0984
      vertex -38.1 5.34609 -12.9066
      vertex -38.1 6.985 -12.0984
    endloop
  endfacet
  facet normal -0 0.997859 0.0653948
    outer loop
      vertex -38.1 13.97 0
      vertex -1.82345 13.8505 1.82345
      vertex 0 13.97 0
    endloop
  endfacet
  facet normal 0 0.997859 0.0653948
    outer loop
      vertex -1.82345 13.8505 1.82345
      vertex -38.1 13.97 0
      vertex -38.1 13.8505 1.82345
    endloop
  endfacet
  facet normal 0 0.997859 0.0653948
    outer loop
      vertex 38.1 13.97 0
      vertex 1.82345 13.8505 1.82345
      vertex 38.1 13.8505 1.82345
    endloop
  endfacet
  facet normal 0 0.997859 0.0653948
    outer loop
      vertex 1.82345 13.8505 1.82345
      vertex 38.1 13.97 0
      vertex 0 13.97 0
    endloop
  endfacet
  facet normal 0 -0.555596 0.831452
    outer loop
      vertex -38.1 -8.5044 11.0831
      vertex -12.0984 -6.985 12.0984
      vertex -38.1 -6.985 12.0984
    endloop
  endfacet
  facet normal 0 -0.555596 0.831452
    outer loop
      vertex -12.0984 -6.985 12.0984
      vertex -38.1 -8.5044 11.0831
      vertex -11.0831 -8.5044 11.0831
    endloop
  endfacet
  facet normal 0 -0.555596 0.831452
    outer loop
      vertex 12.0984 -6.985 12.0984
      vertex 38.1 -8.5044 11.0831
      vertex 38.1 -6.985 12.0984
    endloop
  endfacet
  facet normal 0 -0.555596 0.831452
    outer loop
      vertex 38.1 -8.5044 11.0831
      vertex 12.0984 -6.985 12.0984
      vertex 11.0831 -8.5044 11.0831
    endloop
  endfacet
  facet normal 0 0.946928 -0.321445
    outer loop
      vertex 38.1 12.9066 -5.34609
      vertex -38.1 13.494 -3.6157
      vertex 38.1 13.494 -3.6157
    endloop
  endfacet
  facet normal 0 0.946928 -0.321445
    outer loop
      vertex -38.1 13.494 -3.6157
      vertex 38.1 12.9066 -5.34609
      vertex -38.1 12.9066 -5.34609
    endloop
  endfacet
  facet normal 0 -0.980785 -0.19509
    outer loop
      vertex -38.1 -13.494 -3.6157
      vertex 38.1 -13.8505 -1.82345
      vertex -38.1 -13.8505 -1.82345
    endloop
  endfacet
  facet normal 0 -0.980785 -0.19509
    outer loop
      vertex 38.1 -13.8505 -1.82345
      vertex -38.1 -13.494 -3.6157
      vertex 38.1 -13.494 -3.6157
    endloop
  endfacet
  facet normal -0 0.659333 0.751851
    outer loop
      vertex -38.1 9.87828 9.87828
      vertex -11.0831 8.5044 11.0831
      vertex -9.87828 9.87828 9.87828
    endloop
  endfacet
  facet normal 0 0.659333 0.751851
    outer loop
      vertex -11.0831 8.5044 11.0831
      vertex -38.1 9.87828 9.87828
      vertex -38.1 8.5044 11.0831
    endloop
  endfacet
  facet normal 0 0.659333 0.751851
    outer loop
      vertex 38.1 9.87828 9.87828
      vertex 11.0831 8.5044 11.0831
      vertex 38.1 8.5044 11.0831
    endloop
  endfacet
  facet normal 0 0.659333 0.751851
    outer loop
      vertex 11.0831 8.5044 11.0831
      vertex 38.1 9.87828 9.87828
      vertex 9.87828 9.87828 9.87828
    endloop
  endfacet
  facet normal 0 -0.442279 -0.896877
    outer loop
      vertex -38.1 -6.985 -12.0984
      vertex 38.1 -5.34609 -12.9066
      vertex 38.1 -6.985 -12.0984
    endloop
  endfacet
  facet normal -0 -0.442279 -0.896877
    outer loop
      vertex 38.1 -5.34609 -12.9066
      vertex -38.1 -6.985 -12.0984
      vertex -38.1 -5.34609 -12.9066
    endloop
  endfacet
  facet normal 0 -0.442279 0.896877
    outer loop
      vertex -38.1 -6.985 12.0984
      vertex -12.9066 -5.34609 12.9066
      vertex -38.1 -5.34609 12.9066
    endloop
  endfacet
  facet normal 0 -0.442279 0.896877
    outer loop
      vertex -12.9066 -5.34609 12.9066
      vertex -38.1 -6.985 12.0984
      vertex -12.0984 -6.985 12.0984
    endloop
  endfacet
  facet normal 0 -0.442279 0.896877
    outer loop
      vertex 12.9066 -5.34609 12.9066
      vertex 38.1 -6.985 12.0984
      vertex 38.1 -5.34609 12.9066
    endloop
  endfacet
  facet normal 0 -0.442279 0.896877
    outer loop
      vertex 38.1 -6.985 12.0984
      vertex 12.9066 -5.34609 12.9066
      vertex 12.0984 -6.985 12.0984
    endloop
  endfacet
  facet normal 0 -0.555596 -0.831452
    outer loop
      vertex -38.1 -8.5044 -11.0831
      vertex 38.1 -6.985 -12.0984
      vertex 38.1 -8.5044 -11.0831
    endloop
  endfacet
  facet normal -0 -0.555596 -0.831452
    outer loop
      vertex 38.1 -6.985 -12.0984
      vertex -38.1 -8.5044 -11.0831
      vertex -38.1 -6.985 -12.0984
    endloop
  endfacet
  facet normal 0 0.997859 -0.0653948
    outer loop
      vertex 38.1 13.8505 -1.82345
      vertex 0 13.97 0
      vertex 38.1 13.97 0
    endloop
  endfacet
  facet normal 0 0.997859 -0.0653948
    outer loop
      vertex -38.1 13.8505 -1.82345
      vertex 0 13.97 0
      vertex 38.1 13.8505 -1.82345
    endloop
  endfacet
  facet normal 0 0.997859 -0.0653948
    outer loop
      vertex 0 13.97 0
      vertex -38.1 13.8505 -1.82345
      vertex -38.1 13.97 0
    endloop
  endfacet
  facet normal 0 0.980785 -0.19509
    outer loop
      vertex 38.1 13.494 -3.6157
      vertex -38.1 13.8505 -1.82345
      vertex 38.1 13.8505 -1.82345
    endloop
  endfacet
  facet normal 0 0.980785 -0.19509
    outer loop
      vertex -38.1 13.8505 -1.82345
      vertex 38.1 13.494 -3.6157
      vertex -38.1 13.494 -3.6157
    endloop
  endfacet
  facet normal 0 0.831452 -0.555596
    outer loop
      vertex 38.1 11.0831 -8.5044
      vertex -38.1 12.0984 -6.985
      vertex 38.1 12.0984 -6.985
    endloop
  endfacet
  facet normal 0 0.831452 -0.555596
    outer loop
      vertex -38.1 12.0984 -6.985
      vertex 38.1 11.0831 -8.5044
      vertex -38.1 11.0831 -8.5044
    endloop
  endfacet
  facet normal 0 -0.946928 0.321445
    outer loop
      vertex -38.1 -13.494 3.6157
      vertex -5.34609 -12.9066 5.34609
      vertex -38.1 -12.9066 5.34609
    endloop
  endfacet
  facet normal 0 -0.946928 0.321445
    outer loop
      vertex -5.34609 -12.9066 5.34609
      vertex -38.1 -13.494 3.6157
      vertex -3.6157 -13.494 3.6157
    endloop
  endfacet
  facet normal 0 -0.946928 0.321445
    outer loop
      vertex 38.1 -13.494 3.6157
      vertex 5.34609 -12.9066 5.34609
      vertex 3.6157 -13.494 3.6157
    endloop
  endfacet
  facet normal 0 -0.946928 0.321445
    outer loop
      vertex 5.34609 -12.9066 5.34609
      vertex 38.1 -13.494 3.6157
      vertex 38.1 -12.9066 5.34609
    endloop
  endfacet
  facet normal 0 0.751851 0.659333
    outer loop
      vertex 38.1 11.0831 8.5044
      vertex 9.87828 9.87828 9.87828
      vertex 38.1 9.87828 9.87828
    endloop
  endfacet
  facet normal 0 0.751851 0.659333
    outer loop
      vertex 9.87828 9.87828 9.87828
      vertex 38.1 11.0831 8.5044
      vertex 8.5044 11.0831 8.5044
    endloop
  endfacet
  facet normal -0 0.751851 0.659333
    outer loop
      vertex -38.1 11.0831 8.5044
      vertex -9.87828 9.87828 9.87828
      vertex -8.5044 11.0831 8.5044
    endloop
  endfacet
  facet normal 0 0.751851 0.659333
    outer loop
      vertex -9.87828 9.87828 9.87828
      vertex -38.1 11.0831 8.5044
      vertex -38.1 9.87828 9.87828
    endloop
  endfacet
  facet normal 0 0.321445 -0.946928
    outer loop
      vertex -38.1 3.6157 -13.494
      vertex 38.1 5.34609 -12.9066
      vertex 38.1 3.6157 -13.494
    endloop
  endfacet
  facet normal 0 0.321445 -0.946928
    outer loop
      vertex 38.1 5.34609 -12.9066
      vertex -38.1 3.6157 -13.494
      vertex -38.1 5.34609 -12.9066
    endloop
  endfacet
  facet normal 0 0.19509 0.980785
    outer loop
      vertex 38.1 3.6157 13.494
      vertex 13.8505 1.82345 13.8505
      vertex 38.1 1.82345 13.8505
    endloop
  endfacet
  facet normal 0 0.19509 0.980785
    outer loop
      vertex 13.8505 1.82345 13.8505
      vertex 38.1 3.6157 13.494
      vertex 13.494 3.6157 13.494
    endloop
  endfacet
  facet normal -0 0.19509 0.980785
    outer loop
      vertex -38.1 3.6157 13.494
      vertex -13.8505 1.82345 13.8505
      vertex -13.494 3.6157 13.494
    endloop
  endfacet
  facet normal 0 0.19509 0.980785
    outer loop
      vertex -13.8505 1.82345 13.8505
      vertex -38.1 3.6157 13.494
      vertex -38.1 1.82345 13.8505
    endloop
  endfacet
  facet normal 0 -0.751851 0.659333
    outer loop
      vertex -38.1 -11.0831 8.5044
      vertex -9.87828 -9.87828 9.87828
      vertex -38.1 -9.87828 9.87828
    endloop
  endfacet
  facet normal 0 -0.751851 0.659333
    outer loop
      vertex -9.87828 -9.87828 9.87828
      vertex -38.1 -11.0831 8.5044
      vertex -8.5044 -11.0831 8.5044
    endloop
  endfacet
  facet normal 0 -0.751851 0.659333
    outer loop
      vertex 38.1 -11.0831 8.5044
      vertex 9.87828 -9.87828 9.87828
      vertex 8.5044 -11.0831 8.5044
    endloop
  endfacet
  facet normal 0 -0.751851 0.659333
    outer loop
      vertex 9.87828 -9.87828 9.87828
      vertex 38.1 -11.0831 8.5044
      vertex 38.1 -9.87828 9.87828
    endloop
  endfacet
  facet normal -0 0.442279 0.896877
    outer loop
      vertex -38.1 6.985 12.0984
      vertex -12.9066 5.34609 12.9066
      vertex -12.0984 6.985 12.0984
    endloop
  endfacet
  facet normal 0 0.442279 0.896877
    outer loop
      vertex -12.9066 5.34609 12.9066
      vertex -38.1 6.985 12.0984
      vertex -38.1 5.34609 12.9066
    endloop
  endfacet
  facet normal 0 0.442279 0.896877
    outer loop
      vertex 38.1 6.985 12.0984
      vertex 12.9066 5.34609 12.9066
      vertex 38.1 5.34609 12.9066
    endloop
  endfacet
  facet normal 0 0.442279 0.896877
    outer loop
      vertex 12.9066 5.34609 12.9066
      vertex 38.1 6.985 12.0984
      vertex 12.0984 6.985 12.0984
    endloop
  endfacet
  facet normal -1 0 0
    outer loop
      vertex -38.1 13.8505 -1.82345
      vertex -38.1 13.8505 1.82345
      vertex -38.1 13.97 0
    endloop
  endfacet
  facet normal -1 0 0
    outer loop
      vertex -38.1 13.494 -3.6157
      vertex -38.1 13.8505 1.82345
      vertex -38.1 13.8505 -1.82345
    endloop
  endfacet
  facet normal -1 0 0
    outer loop
      vertex -38.1 13.494 -3.6157
      vertex -38.1 13.494 3.6157
      vertex -38.1 13.8505 1.82345
    endloop
  endfacet
  facet normal -1 0 0
    outer loop
      vertex -38.1 12.9066 -5.34609
      vertex -38.1 13.494 3.6157
      vertex -38.1 13.494 -3.6157
    endloop
  endfacet
  facet normal -1 0 0
    outer loop
      vertex -38.1 12.9066 -5.34609
      vertex -38.1 12.9066 5.34609
      vertex -38.1 13.494 3.6157
    endloop
  endfacet
  facet normal -1 0 0
    outer loop
      vertex -38.1 12.0984 -6.985
      vertex -38.1 12.9066 5.34609
      vertex -38.1 12.9066 -5.34609
    endloop
  endfacet
  facet normal -1 0 0
    outer loop
      vertex -38.1 12.0984 -6.985
      vertex -38.1 12.0984 6.985
      vertex -38.1 12.9066 5.34609
    endloop
  endfacet
  facet normal -1 0 0
    outer loop
      vertex -38.1 11.0831 -8.5044
      vertex -38.1 12.0984 6.985
      vertex -38.1 12.0984 -6.985
    endloop
  endfacet
  facet normal -1 0 0
    outer loop
      vertex -38.1 11.0831 -8.5044
      vertex -38.1 11.0831 8.5044
      vertex -38.1 12.0984 6.985
    endloop
  endfacet
  facet normal -1 0 0
    outer loop
      vertex -38.1 9.87828 -9.87828
      vertex -38.1 11.0831 8.5044
      vertex -38.1 11.0831 -8.5044
    endloop
  endfacet
  facet normal -1 0 0
    outer loop
      vertex -38.1 9.87828 -9.87828
      vertex -38.1 9.87828 9.87828
      vertex -38.1 11.0831 8.5044
    endloop
  endfacet
  facet normal -1 0 0
    outer loop
      vertex -38.1 8.5044 -11.0831
      vertex -38.1 9.87828 9.87828
      vertex -38.1 9.87828 -9.87828
    endloop
  endfacet
  facet normal -1 0 0
    outer loop
      vertex -38.1 8.5044 -11.0831
      vertex -38.1 8.5044 11.0831
      vertex -38.1 9.87828 9.87828
    endloop
  endfacet
  facet normal -1 0 0
    outer loop
      vertex -38.1 6.985 -12.0984
      vertex -38.1 8.5044 11.0831
      vertex -38.1 8.5044 -11.0831
    endloop
  endfacet
  facet normal -1 0 0
    outer loop
      vertex -38.1 6.985 -12.0984
      vertex -38.1 6.985 12.0984
      vertex -38.1 8.5044 11.0831
    endloop
  endfacet
  facet normal -1 0 0
    outer loop
      vertex -38.1 5.34609 -12.9066
      vertex -38.1 6.985 12.0984
      vertex -38.1 6.985 -12.0984
    endloop
  endfacet
  facet normal -1 0 0
    outer loop
      vertex -38.1 5.34609 -12.9066
      vertex -38.1 5.34609 12.9066
      vertex -38.1 6.985 12.0984
    endloop
  endfacet
  facet normal -1 0 0
    outer loop
      vertex -38.1 3.6157 -13.494
      vertex -38.1 5.34609 12.9066
      vertex -38.1 5.34609 -12.9066
    endloop
  endfacet
  facet normal -1 0 0
    outer loop
      vertex -38.1 3.6157 -13.494
      vertex -38.1 3.6157 13.494
      vertex -38.1 5.34609 12.9066
    endloop
  endfacet
  facet normal -1 0 0
    outer loop
      vertex -38.1 1.82345 -13.8505
      vertex -38.1 3.6157 13.494
      vertex -38.1 3.6157 -13.494
    endloop
  endfacet
  facet normal -1 0 0
    outer loop
      vertex -38.1 1.82345 -13.8505
      vertex -38.1 1.82345 13.8505
      vertex -38.1 3.6157 13.494
    endloop
  endfacet
  facet normal -1 0 0
    outer loop
      vertex -38.1 0 -13.97
      vertex -38.1 1.82345 13.8505
      vertex -38.1 1.82345 -13.8505
    endloop
  endfacet
  facet normal -1 0 0
    outer loop
      vertex -38.1 0 -13.97
      vertex -38.1 0 13.97
      vertex -38.1 1.82345 13.8505
    endloop
  endfacet
  facet normal -1 0 0
    outer loop
      vertex -38.1 -1.82345 -13.8505
      vertex -38.1 0 13.97
      vertex -38.1 0 -13.97
    endloop
  endfacet
  facet normal -1 0 0
    outer loop
      vertex -38.1 -1.82345 -13.8505
      vertex -38.1 -1.82345 13.8505
      vertex -38.1 0 13.97
    endloop
  endfacet
  facet normal -1 0 0
    outer loop
      vertex -38.1 -3.6157 -13.494
      vertex -38.1 -1.82345 13.8505
      vertex -38.1 -1.82345 -13.8505
    endloop
  endfacet
  facet normal -1 0 0
    outer loop
      vertex -38.1 -3.6157 -13.494
      vertex -38.1 -3.6157 13.494
      vertex -38.1 -1.82345 13.8505
    endloop
  endfacet
  facet normal -1 0 0
    outer loop
      vertex -38.1 -5.34609 -12.9066
      vertex -38.1 -3.6157 13.494
      vertex -38.1 -3.6157 -13.494
    endloop
  endfacet
  facet normal -1 0 0
    outer loop
      vertex -38.1 -5.34609 -12.9066
      vertex -38.1 -5.34609 12.9066
      vertex -38.1 -3.6157 13.494
    endloop
  endfacet
  facet normal -1 0 0
    outer loop
      vertex -38.1 -6.985 -12.0984
      vertex -38.1 -5.34609 12.9066
      vertex -38.1 -5.34609 -12.9066
    endloop
  endfacet
  facet normal -1 0 0
    outer loop
      vertex -38.1 -6.985 -12.0984
      vertex -38.1 -6.985 12.0984
      vertex -38.1 -5.34609 12.9066
    endloop
  endfacet
  facet normal -1 0 0
    outer loop
      vertex -38.1 -8.5044 -11.0831
      vertex -38.1 -6.985 12.0984
      vertex -38.1 -6.985 -12.0984
    endloop
  endfacet
  facet normal -1 0 0
    outer loop
      vertex -38.1 -8.5044 -11.0831
      vertex -38.1 -8.5044 11.0831
      vertex -38.1 -6.985 12.0984
    endloop
  endfacet
  facet normal -1 0 0
    outer loop
      vertex -38.1 -9.87828 -9.87828
      vertex -38.1 -8.5044 11.0831
      vertex -38.1 -8.5044 -11.0831
    endloop
  endfacet
  facet normal -1 0 0
    outer loop
      vertex -38.1 -9.87828 -9.87828
      vertex -38.1 -9.87828 9.87828
      vertex -38.1 -8.5044 11.0831
    endloop
  endfacet
  facet normal -1 0 0
    outer loop
      vertex -38.1 -11.0831 -8.5044
      vertex -38.1 -9.87828 9.87828
      vertex -38.1 -9.87828 -9.87828
    endloop
  endfacet
  facet normal -1 0 0
    outer loop
      vertex -38.1 -11.0831 -8.5044
      vertex -38.1 -11.0831 8.5044
      vertex -38.1 -9.87828 9.87828
    endloop
  endfacet
  facet normal -1 0 0
    outer loop
      vertex -38.1 -12.0984 -6.985
      vertex -38.1 -11.0831 8.5044
      vertex -38.1 -11.0831 -8.5044
    endloop
  endfacet
  facet normal -1 0 0
    outer loop
      vertex -38.1 -12.0984 -6.985
      vertex -38.1 -12.0984 6.985
      vertex -38.1 -11.0831 8.5044
    endloop
  endfacet
  facet normal -1 0 0
    outer loop
      vertex -38.1 -12.9066 -5.34609
      vertex -38.1 -12.0984 6.985
      vertex -38.1 -12.0984 -6.985
    endloop
  endfacet
  facet normal -1 0 0
    outer loop
      vertex -38.1 -12.9066 -5.34609
      vertex -38.1 -12.9066 5.34609
      vertex -38.1 -12.0984 6.985
    endloop
  endfacet
  facet normal -1 0 0
    outer loop
      vertex -38.1 -13.494 -3.6157
      vertex -38.1 -12.9066 5.34609
      vertex -38.1 -12.9066 -5.34609
    endloop
  endfacet
  facet normal -1 0 0
    outer loop
      vertex -38.1 -13.494 -3.6157
      vertex -38.1 -13.494 3.6157
      vertex -38.1 -12.9066 5.34609
    endloop
  endfacet
  facet normal -1 0 0
    outer loop
      vertex -38.1 -13.8505 -1.82345
      vertex -38.1 -13.494 3.6157
      vertex -38.1 -13.494 -3.6157
    endloop
  endfacet
  facet normal -1 0 0
    outer loop
      vertex -38.1 -13.8505 -1.82345
      vertex -38.1 -13.8505 1.82345
      vertex -38.1 -13.494 3.6157
    endloop
  endfacet
  facet normal -1 0 -0
    outer loop
      vertex -38.1 -13.8505 1.82345
      vertex -38.1 -13.8505 -1.82345
      vertex -38.1 -13.97 0
    endloop
  endfacet
  facet normal 0 -0.659333 0.751851
    outer loop
      vertex -38.1 -9.87828 9.87828
      vertex -11.0831 -8.5044 11.0831
      vertex -38.1 -8.5044 11.0831
    endloop
  endfacet
  facet normal 0 -0.659333 0.751851
    outer loop
      vertex -11.0831 -8.5044 11.0831
      vertex -38.1 -9.87828 9.87828
      vertex -9.87828 -9.87828 9.87828
    endloop
  endfacet
  facet normal 0 -0.659333 0.751851
    outer loop
      vertex 11.0831 -8.5044 11.0831
      vertex 38.1 -9.87828 9.87828
      vertex 38.1 -8.5044 11.0831
    endloop
  endfacet
  facet normal 0 -0.659333 0.751851
    outer loop
      vertex 38.1 -9.87828 9.87828
      vertex 11.0831 -8.5044 11.0831
      vertex 9.87828 -9.87828 9.87828
    endloop
  endfacet
  facet normal 0 -0.980785 0.19509
    outer loop
      vertex 38.1 -13.8505 1.82345
      vertex 3.6157 -13.494 3.6157
      vertex 1.82345 -13.8505 1.82345
    endloop
  endfacet
  facet normal 0 -0.980785 0.19509
    outer loop
      vertex 3.6157 -13.494 3.6157
      vertex 38.1 -13.8505 1.82345
      vertex 38.1 -13.494 3.6157
    endloop
  endfacet
  facet normal 0 -0.980785 0.19509
    outer loop
      vertex -38.1 -13.8505 1.82345
      vertex -3.6157 -13.494 3.6157
      vertex -38.1 -13.494 3.6157
    endloop
  endfacet
  facet normal 0 -0.980785 0.19509
    outer loop
      vertex -3.6157 -13.494 3.6157
      vertex -38.1 -13.8505 1.82345
      vertex -1.82345 -13.8505 1.82345
    endloop
  endfacet
  facet normal 0 -0.831452 0.555596
    outer loop
      vertex -38.1 -12.0984 6.985
      vertex -8.5044 -11.0831 8.5044
      vertex -38.1 -11.0831 8.5044
    endloop
  endfacet
  facet normal 0 -0.831452 0.555596
    outer loop
      vertex -8.5044 -11.0831 8.5044
      vertex -38.1 -12.0984 6.985
      vertex -6.985 -12.0984 6.985
    endloop
  endfacet
  facet normal 0 -0.831452 0.555596
    outer loop
      vertex 38.1 -12.0984 6.985
      vertex 8.5044 -11.0831 8.5044
      vertex 6.985 -12.0984 6.985
    endloop
  endfacet
  facet normal 0 -0.831452 0.555596
    outer loop
      vertex 8.5044 -11.0831 8.5044
      vertex 38.1 -12.0984 6.985
      vertex 38.1 -11.0831 8.5044
    endloop
  endfacet
  facet normal 0.980785 -0.19509 0
    outer loop
      vertex 13.494 -3.6157 45.72
      vertex 13.8505 -1.82345 13.8505
      vertex 13.8505 -1.82345 45.72
    endloop
  endfacet
  facet normal 0.980785 -0.19509 0
    outer loop
      vertex 13.8505 -1.82345 13.8505
      vertex 13.494 -3.6157 45.72
      vertex 13.494 -3.6157 13.494
    endloop
  endfacet
  facet normal 0.980785 0.19509 -0
    outer loop
      vertex 13.8505 1.82345 13.8505
      vertex 13.494 3.6157 45.72
      vertex 13.8505 1.82345 45.72
    endloop
  endfacet
  facet normal 0.980785 0.19509 0
    outer loop
      vertex 13.494 3.6157 45.72
      vertex 13.8505 1.82345 13.8505
      vertex 13.494 3.6157 13.494
    endloop
  endfacet
  facet normal 0.997859 0.0653948 -0
    outer loop
      vertex 13.97 0 13.97
      vertex 13.8505 1.82345 45.72
      vertex 13.97 0 45.72
    endloop
  endfacet
  facet normal 0.997859 0.0653948 0
    outer loop
      vertex 13.8505 1.82345 45.72
      vertex 13.97 0 13.97
      vertex 13.8505 1.82345 13.8505
    endloop
  endfacet
  facet normal -0.997859 0.0653948 0
    outer loop
      vertex -13.97 0 13.97
      vertex -13.8505 1.82345 45.72
      vertex -13.8505 1.82345 13.8505
    endloop
  endfacet
  facet normal -0.997859 0.0653948 0
    outer loop
      vertex -13.8505 1.82345 45.72
      vertex -13.97 0 13.97
      vertex -13.97 0 45.72
    endloop
  endfacet
  facet normal 0.442279 0.896877 -0
    outer loop
      vertex 6.985 12.0984 6.985
      vertex 5.34609 12.9066 45.72
      vertex 6.985 12.0984 45.72
    endloop
  endfacet
  facet normal 0.442279 0.896877 0
    outer loop
      vertex 5.34609 12.9066 45.72
      vertex 6.985 12.0984 6.985
      vertex 5.34609 12.9066 5.34609
    endloop
  endfacet
  facet normal -0.751851 0.659333 0
    outer loop
      vertex -11.0831 8.5044 11.0831
      vertex -9.87828 9.87828 45.72
      vertex -9.87828 9.87828 9.87828
    endloop
  endfacet
  facet normal -0.751851 0.659333 0
    outer loop
      vertex -9.87828 9.87828 45.72
      vertex -11.0831 8.5044 11.0831
      vertex -11.0831 8.5044 45.72
    endloop
  endfacet
  facet normal -0.980785 -0.19509 -0
    outer loop
      vertex -13.494 -3.6157 45.72
      vertex -13.8505 -1.82345 13.8505
      vertex -13.494 -3.6157 13.494
    endloop
  endfacet
  facet normal -0.980785 -0.19509 0
    outer loop
      vertex -13.8505 -1.82345 13.8505
      vertex -13.494 -3.6157 45.72
      vertex -13.8505 -1.82345 45.72
    endloop
  endfacet
  facet normal -0.0653948 0.997859 0
    outer loop
      vertex 0 13.97 45.72
      vertex -1.82345 13.8505 1.82345
      vertex -1.82345 13.8505 45.72
    endloop
  endfacet
  facet normal -0.0653948 0.997859 0
    outer loop
      vertex -1.82345 13.8505 1.82345
      vertex 0 13.97 45.72
      vertex 0 13.97 0
    endloop
  endfacet
  facet normal 0.831452 -0.555596 0
    outer loop
      vertex 11.0831 -8.5044 45.72
      vertex 12.0984 -6.985 12.0984
      vertex 12.0984 -6.985 45.72
    endloop
  endfacet
  facet normal 0.831452 -0.555596 0
    outer loop
      vertex 12.0984 -6.985 12.0984
      vertex 11.0831 -8.5044 45.72
      vertex 11.0831 -8.5044 11.0831
    endloop
  endfacet
  facet normal 0.831452 0.555596 -0
    outer loop
      vertex 12.0984 6.985 12.0984
      vertex 11.0831 8.5044 45.72
      vertex 12.0984 6.985 45.72
    endloop
  endfacet
  facet normal 0.831452 0.555596 0
    outer loop
      vertex 11.0831 8.5044 45.72
      vertex 12.0984 6.985 12.0984
      vertex 11.0831 8.5044 11.0831
    endloop
  endfacet
  facet normal 0.946928 0.321445 -0
    outer loop
      vertex 13.494 3.6157 13.494
      vertex 12.9066 5.34609 45.72
      vertex 13.494 3.6157 45.72
    endloop
  endfacet
  facet normal 0.946928 0.321445 0
    outer loop
      vertex 12.9066 5.34609 45.72
      vertex 13.494 3.6157 13.494
      vertex 12.9066 5.34609 12.9066
    endloop
  endfacet
  facet normal 0.19509 -0.980785 0
    outer loop
      vertex 1.82345 -13.8505 45.72
      vertex 3.6157 -13.494 3.6157
      vertex 3.6157 -13.494 45.72
    endloop
  endfacet
  facet normal 0.19509 -0.980785 0
    outer loop
      vertex 3.6157 -13.494 3.6157
      vertex 1.82345 -13.8505 45.72
      vertex 1.82345 -13.8505 1.82345
    endloop
  endfacet
  facet normal 0.321445 -0.946928 0
    outer loop
      vertex 3.6157 -13.494 45.72
      vertex 5.34609 -12.9066 5.34609
      vertex 5.34609 -12.9066 45.72
    endloop
  endfacet
  facet normal 0.321445 -0.946928 0
    outer loop
      vertex 5.34609 -12.9066 5.34609
      vertex 3.6157 -13.494 45.72
      vertex 3.6157 -13.494 3.6157
    endloop
  endfacet
  facet normal -0.946928 -0.321445 -0
    outer loop
      vertex -12.9066 -5.34609 45.72
      vertex -13.494 -3.6157 13.494
      vertex -12.9066 -5.34609 12.9066
    endloop
  endfacet
  facet normal -0.946928 -0.321445 0
    outer loop
      vertex -13.494 -3.6157 13.494
      vertex -12.9066 -5.34609 45.72
      vertex -13.494 -3.6157 45.72
    endloop
  endfacet
  facet normal 0.659333 0.751851 -0
    outer loop
      vertex 9.87828 9.87828 9.87828
      vertex 8.5044 11.0831 45.72
      vertex 9.87828 9.87828 45.72
    endloop
  endfacet
  facet normal 0.659333 0.751851 0
    outer loop
      vertex 8.5044 11.0831 45.72
      vertex 9.87828 9.87828 9.87828
      vertex 8.5044 11.0831 8.5044
    endloop
  endfacet
  facet normal -0.831452 0.555596 0
    outer loop
      vertex -12.0984 6.985 12.0984
      vertex -11.0831 8.5044 45.72
      vertex -11.0831 8.5044 11.0831
    endloop
  endfacet
  facet normal -0.831452 0.555596 0
    outer loop
      vertex -11.0831 8.5044 45.72
      vertex -12.0984 6.985 12.0984
      vertex -12.0984 6.985 45.72
    endloop
  endfacet
  facet normal -0.555596 0.831452 0
    outer loop
      vertex -6.985 12.0984 45.72
      vertex -8.5044 11.0831 8.5044
      vertex -8.5044 11.0831 45.72
    endloop
  endfacet
  facet normal -0.555596 0.831452 0
    outer loop
      vertex -8.5044 11.0831 8.5044
      vertex -6.985 12.0984 45.72
      vertex -6.985 12.0984 6.985
    endloop
  endfacet
  facet normal 0.321445 0.946928 -0
    outer loop
      vertex 5.34609 12.9066 5.34609
      vertex 3.6157 13.494 45.72
      vertex 5.34609 12.9066 45.72
    endloop
  endfacet
  facet normal 0.321445 0.946928 0
    outer loop
      vertex 3.6157 13.494 45.72
      vertex 5.34609 12.9066 5.34609
      vertex 3.6157 13.494 3.6157
    endloop
  endfacet
  facet normal -0.997859 -0.0653948 -0
    outer loop
      vertex -13.8505 -1.82345 45.72
      vertex -13.97 0 13.97
      vertex -13.8505 -1.82345 13.8505
    endloop
  endfacet
  facet normal -0.997859 -0.0653948 0
    outer loop
      vertex -13.97 0 13.97
      vertex -13.8505 -1.82345 45.72
      vertex -13.97 0 45.72
    endloop
  endfacet
  facet normal -0.442279 -0.896877 0
    outer loop
      vertex -6.985 -12.0984 6.985
      vertex -5.34609 -12.9066 45.72
      vertex -6.985 -12.0984 45.72
    endloop
  endfacet
  facet normal -0.442279 -0.896877 -0
    outer loop
      vertex -5.34609 -12.9066 45.72
      vertex -6.985 -12.0984 6.985
      vertex -5.34609 -12.9066 5.34609
    endloop
  endfacet
  facet normal -0.555596 -0.831452 0
    outer loop
      vertex -8.5044 -11.0831 8.5044
      vertex -6.985 -12.0984 45.72
      vertex -8.5044 -11.0831 45.72
    endloop
  endfacet
  facet normal -0.555596 -0.831452 -0
    outer loop
      vertex -6.985 -12.0984 45.72
      vertex -8.5044 -11.0831 8.5044
      vertex -6.985 -12.0984 6.985
    endloop
  endfacet
  facet normal 0.751851 0.659333 -0
    outer loop
      vertex 11.0831 8.5044 11.0831
      vertex 9.87828 9.87828 45.72
      vertex 11.0831 8.5044 45.72
    endloop
  endfacet
  facet normal 0.751851 0.659333 0
    outer loop
      vertex 9.87828 9.87828 45.72
      vertex 11.0831 8.5044 11.0831
      vertex 9.87828 9.87828 9.87828
    endloop
  endfacet
  facet normal 0.0653948 -0.997859 0
    outer loop
      vertex 0 -13.97 45.72
      vertex 1.82345 -13.8505 1.82345
      vertex 1.82345 -13.8505 45.72
    endloop
  endfacet
  facet normal 0.0653948 -0.997859 0
    outer loop
      vertex 1.82345 -13.8505 1.82345
      vertex 0 -13.97 45.72
      vertex 0 -13.97 0
    endloop
  endfacet
  facet normal 0.442279 -0.896877 0
    outer loop
      vertex 5.34609 -12.9066 45.72
      vertex 6.985 -12.0984 6.985
      vertex 6.985 -12.0984 45.72
    endloop
  endfacet
  facet normal 0.442279 -0.896877 0
    outer loop
      vertex 6.985 -12.0984 6.985
      vertex 5.34609 -12.9066 45.72
      vertex 5.34609 -12.9066 5.34609
    endloop
  endfacet
  facet normal 0.751851 -0.659333 0
    outer loop
      vertex 9.87828 -9.87828 45.72
      vertex 11.0831 -8.5044 11.0831
      vertex 11.0831 -8.5044 45.72
    endloop
  endfacet
  facet normal 0.751851 -0.659333 0
    outer loop
      vertex 11.0831 -8.5044 11.0831
      vertex 9.87828 -9.87828 45.72
      vertex 9.87828 -9.87828 9.87828
    endloop
  endfacet
  facet normal 0.997859 -0.0653948 0
    outer loop
      vertex 13.8505 -1.82345 45.72
      vertex 13.97 0 13.97
      vertex 13.97 0 45.72
    endloop
  endfacet
  facet normal 0.997859 -0.0653948 0
    outer loop
      vertex 13.97 0 13.97
      vertex 13.8505 -1.82345 45.72
      vertex 13.8505 -1.82345 13.8505
    endloop
  endfacet
  facet normal -0.442279 0.896877 0
    outer loop
      vertex -5.34609 12.9066 45.72
      vertex -6.985 12.0984 6.985
      vertex -6.985 12.0984 45.72
    endloop
  endfacet
  facet normal -0.442279 0.896877 0
    outer loop
      vertex -6.985 12.0984 6.985
      vertex -5.34609 12.9066 45.72
      vertex -5.34609 12.9066 5.34609
    endloop
  endfacet
  facet normal 0.896877 0.442279 -0
    outer loop
      vertex 12.9066 5.34609 12.9066
      vertex 12.0984 6.985 45.72
      vertex 12.9066 5.34609 45.72
    endloop
  endfacet
  facet normal 0.896877 0.442279 0
    outer loop
      vertex 12.0984 6.985 45.72
      vertex 12.9066 5.34609 12.9066
      vertex 12.0984 6.985 12.0984
    endloop
  endfacet
  facet normal -0.980785 0.19509 0
    outer loop
      vertex -13.8505 1.82345 13.8505
      vertex -13.494 3.6157 45.72
      vertex -13.494 3.6157 13.494
    endloop
  endfacet
  facet normal -0.980785 0.19509 0
    outer loop
      vertex -13.494 3.6157 45.72
      vertex -13.8505 1.82345 13.8505
      vertex -13.8505 1.82345 45.72
    endloop
  endfacet
  facet normal 0.946928 -0.321445 0
    outer loop
      vertex 12.9066 -5.34609 45.72
      vertex 13.494 -3.6157 13.494
      vertex 13.494 -3.6157 45.72
    endloop
  endfacet
  facet normal 0.946928 -0.321445 0
    outer loop
      vertex 13.494 -3.6157 13.494
      vertex 12.9066 -5.34609 45.72
      vertex 12.9066 -5.34609 12.9066
    endloop
  endfacet
  facet normal 0.0653948 0.997859 -0
    outer loop
      vertex 1.82345 13.8505 1.82345
      vertex 0 13.97 45.72
      vertex 1.82345 13.8505 45.72
    endloop
  endfacet
  facet normal 0.0653948 0.997859 0
    outer loop
      vertex 0 13.97 45.72
      vertex 1.82345 13.8505 1.82345
      vertex 0 13.97 0
    endloop
  endfacet
  facet normal 0.19509 0.980785 -0
    outer loop
      vertex 3.6157 13.494 3.6157
      vertex 1.82345 13.8505 45.72
      vertex 3.6157 13.494 45.72
    endloop
  endfacet
  facet normal 0.19509 0.980785 0
    outer loop
      vertex 1.82345 13.8505 45.72
      vertex 3.6157 13.494 3.6157
      vertex 1.82345 13.8505 1.82345
    endloop
  endfacet
  facet normal -0.659333 0.751851 0
    outer loop
      vertex -8.5044 11.0831 45.72
      vertex -9.87828 9.87828 9.87828
      vertex -9.87828 9.87828 45.72
    endloop
  endfacet
  facet normal -0.659333 0.751851 0
    outer loop
      vertex -9.87828 9.87828 9.87828
      vertex -8.5044 11.0831 45.72
      vertex -8.5044 11.0831 8.5044
    endloop
  endfacet
  facet normal 0.555596 0.831452 -0
    outer loop
      vertex 8.5044 11.0831 8.5044
      vertex 6.985 12.0984 45.72
      vertex 8.5044 11.0831 45.72
    endloop
  endfacet
  facet normal 0.555596 0.831452 0
    outer loop
      vertex 6.985 12.0984 45.72
      vertex 8.5044 11.0831 8.5044
      vertex 6.985 12.0984 6.985
    endloop
  endfacet
  facet normal -0.321445 0.946928 0
    outer loop
      vertex -3.6157 13.494 45.72
      vertex -5.34609 12.9066 5.34609
      vertex -5.34609 12.9066 45.72
    endloop
  endfacet
  facet normal -0.321445 0.946928 0
    outer loop
      vertex -5.34609 12.9066 5.34609
      vertex -3.6157 13.494 45.72
      vertex -3.6157 13.494 3.6157
    endloop
  endfacet
  facet normal -0.896877 -0.442279 -0
    outer loop
      vertex -12.0984 -6.985 45.72
      vertex -12.9066 -5.34609 12.9066
      vertex -12.0984 -6.985 12.0984
    endloop
  endfacet
  facet normal -0.896877 -0.442279 0
    outer loop
      vertex -12.9066 -5.34609 12.9066
      vertex -12.0984 -6.985 45.72
      vertex -12.9066 -5.34609 45.72
    endloop
  endfacet
  facet normal -0.831452 -0.555596 -0
    outer loop
      vertex -11.0831 -8.5044 45.72
      vertex -12.0984 -6.985 12.0984
      vertex -11.0831 -8.5044 11.0831
    endloop
  endfacet
  facet normal -0.831452 -0.555596 0
    outer loop
      vertex -12.0984 -6.985 12.0984
      vertex -11.0831 -8.5044 45.72
      vertex -12.0984 -6.985 45.72
    endloop
  endfacet
  facet normal -0.946928 0.321445 0
    outer loop
      vertex -13.494 3.6157 13.494
      vertex -12.9066 5.34609 45.72
      vertex -12.9066 5.34609 12.9066
    endloop
  endfacet
  facet normal -0.946928 0.321445 0
    outer loop
      vertex -12.9066 5.34609 45.72
      vertex -13.494 3.6157 13.494
      vertex -13.494 3.6157 45.72
    endloop
  endfacet
  facet normal 0 0 1
    outer loop
      vertex 13.8505 1.82345 45.72
      vertex 13.8505 -1.82345 45.72
      vertex 13.97 0 45.72
    endloop
  endfacet
  facet normal 0 0 1
    outer loop
      vertex 13.494 3.6157 45.72
      vertex 13.8505 -1.82345 45.72
      vertex 13.8505 1.82345 45.72
    endloop
  endfacet
  facet normal 0 0 1
    outer loop
      vertex 13.494 3.6157 45.72
      vertex 13.494 -3.6157 45.72
      vertex 13.8505 -1.82345 45.72
    endloop
  endfacet
  facet normal 0 0 1
    outer loop
      vertex 12.9066 5.34609 45.72
      vertex 13.494 -3.6157 45.72
      vertex 13.494 3.6157 45.72
    endloop
  endfacet
  facet normal 0 0 1
    outer loop
      vertex 12.9066 5.34609 45.72
      vertex 12.9066 -5.34609 45.72
      vertex 13.494 -3.6157 45.72
    endloop
  endfacet
  facet normal 0 0 1
    outer loop
      vertex 12.0984 6.985 45.72
      vertex 12.9066 -5.34609 45.72
      vertex 12.9066 5.34609 45.72
    endloop
  endfacet
  facet normal 0 0 1
    outer loop
      vertex 12.0984 6.985 45.72
      vertex 12.0984 -6.985 45.72
      vertex 12.9066 -5.34609 45.72
    endloop
  endfacet
  facet normal 0 0 1
    outer loop
      vertex 11.0831 8.5044 45.72
      vertex 12.0984 -6.985 45.72
      vertex 12.0984 6.985 45.72
    endloop
  endfacet
  facet normal 0 0 1
    outer loop
      vertex 11.0831 8.5044 45.72
      vertex 11.0831 -8.5044 45.72
      vertex 12.0984 -6.985 45.72
    endloop
  endfacet
  facet normal 0 0 1
    outer loop
      vertex 9.87828 9.87828 45.72
      vertex 11.0831 -8.5044 45.72
      vertex 11.0831 8.5044 45.72
    endloop
  endfacet
  facet normal 0 0 1
    outer loop
      vertex 9.87828 9.87828 45.72
      vertex 9.87828 -9.87828 45.72
      vertex 11.0831 -8.5044 45.72
    endloop
  endfacet
  facet normal 0 0 1
    outer loop
      vertex 8.5044 11.0831 45.72
      vertex 9.87828 -9.87828 45.72
      vertex 9.87828 9.87828 45.72
    endloop
  endfacet
  facet normal 0 0 1
    outer loop
      vertex 8.5044 11.0831 45.72
      vertex 8.5044 -11.0831 45.72
      vertex 9.87828 -9.87828 45.72
    endloop
  endfacet
  facet normal 0 0 1
    outer loop
      vertex 6.985 12.0984 45.72
      vertex 8.5044 -11.0831 45.72
      vertex 8.5044 11.0831 45.72
    endloop
  endfacet
  facet normal 0 0 1
    outer loop
      vertex 6.985 12.0984 45.72
      vertex 6.985 -12.0984 45.72
      vertex 8.5044 -11.0831 45.72
    endloop
  endfacet
  facet normal 0 0 1
    outer loop
      vertex 5.34609 12.9066 45.72
      vertex 6.985 -12.0984 45.72
      vertex 6.985 12.0984 45.72
    endloop
  endfacet
  facet normal 0 0 1
    outer loop
      vertex 5.34609 12.9066 45.72
      vertex 5.34609 -12.9066 45.72
      vertex 6.985 -12.0984 45.72
    endloop
  endfacet
  facet normal 0 0 1
    outer loop
      vertex 3.6157 13.494 45.72
      vertex 5.34609 -12.9066 45.72
      vertex 5.34609 12.9066 45.72
    endloop
  endfacet
  facet normal 0 0 1
    outer loop
      vertex 3.6157 13.494 45.72
      vertex 3.6157 -13.494 45.72
      vertex 5.34609 -12.9066 45.72
    endloop
  endfacet
  facet normal 0 0 1
    outer loop
      vertex 1.82345 13.8505 45.72
      vertex 3.6157 -13.494 45.72
      vertex 3.6157 13.494 45.72
    endloop
  endfacet
  facet normal 0 0 1
    outer loop
      vertex 1.82345 13.8505 45.72
      vertex 1.82345 -13.8505 45.72
      vertex 3.6157 -13.494 45.72
    endloop
  endfacet
  facet normal 0 0 1
    outer loop
      vertex 0 13.97 45.72
      vertex 1.82345 -13.8505 45.72
      vertex 1.82345 13.8505 45.72
    endloop
  endfacet
  facet normal 0 0 1
    outer loop
      vertex 0 13.97 45.72
      vertex 0 -13.97 45.72
      vertex 1.82345 -13.8505 45.72
    endloop
  endfacet
  facet normal -0 0 1
    outer loop
      vertex -1.82345 13.8505 45.72
      vertex 0 -13.97 45.72
      vertex 0 13.97 45.72
    endloop
  endfacet
  facet normal 0 0 1
    outer loop
      vertex -1.82345 13.8505 45.72
      vertex -1.82345 -13.8505 45.72
      vertex 0 -13.97 45.72
    endloop
  endfacet
  facet normal -0 0 1
    outer loop
      vertex -3.6157 13.494 45.72
      vertex -1.82345 -13.8505 45.72
      vertex -1.82345 13.8505 45.72
    endloop
  endfacet
  facet normal 0 0 1
    outer loop
      vertex -3.6157 13.494 45.72
      vertex -3.6157 -13.494 45.72
      vertex -1.82345 -13.8505 45.72
    endloop
  endfacet
  facet normal -0 0 1
    outer loop
      vertex -5.34609 12.9066 45.72
      vertex -3.6157 -13.494 45.72
      vertex -3.6157 13.494 45.72
    endloop
  endfacet
  facet normal 0 0 1
    outer loop
      vertex -5.34609 12.9066 45.72
      vertex -5.34609 -12.9066 45.72
      vertex -3.6157 -13.494 45.72
    endloop
  endfacet
  facet normal -0 0 1
    outer loop
      vertex -6.985 12.0984 45.72
      vertex -5.34609 -12.9066 45.72
      vertex -5.34609 12.9066 45.72
    endloop
  endfacet
  facet normal 0 0 1
    outer loop
      vertex -6.985 12.0984 45.72
      vertex -6.985 -12.0984 45.72
      vertex -5.34609 -12.9066 45.72
    endloop
  endfacet
  facet normal -0 0 1
    outer loop
      vertex -8.5044 11.0831 45.72
      vertex -6.985 -12.0984 45.72
      vertex -6.985 12.0984 45.72
    endloop
  endfacet
  facet normal 0 0 1
    outer loop
      vertex -8.5044 11.0831 45.72
      vertex -8.5044 -11.0831 45.72
      vertex -6.985 -12.0984 45.72
    endloop
  endfacet
  facet normal -0 0 1
    outer loop
      vertex -9.87828 9.87828 45.72
      vertex -8.5044 -11.0831 45.72
      vertex -8.5044 11.0831 45.72
    endloop
  endfacet
  facet normal 0 0 1
    outer loop
      vertex -9.87828 9.87828 45.72
      vertex -9.87828 -9.87828 45.72
      vertex -8.5044 -11.0831 45.72
    endloop
  endfacet
  facet normal -0 0 1
    outer loop
      vertex -11.0831 8.5044 45.72
      vertex -9.87828 -9.87828 45.72
      vertex -9.87828 9.87828 45.72
    endloop
  endfacet
  facet normal 0 0 1
    outer loop
      vertex -11.0831 8.5044 45.72
      vertex -11.0831 -8.5044 45.72
      vertex -9.87828 -9.87828 45.72
    endloop
  endfacet
  facet normal -0 0 1
    outer loop
      vertex -12.0984 6.985 45.72
      vertex -11.0831 -8.5044 45.72
      vertex -11.0831 8.5044 45.72
    endloop
  endfacet
  facet normal 0 0 1
    outer loop
      vertex -12.0984 6.985 45.72
      vertex -12.0984 -6.985 45.72
      vertex -11.0831 -8.5044 45.72
    endloop
  endfacet
  facet normal -0 0 1
    outer loop
      vertex -12.9066 5.34609 45.72
      vertex -12.0984 -6.985 45.72
      vertex -12.0984 6.985 45.72
    endloop
  endfacet
  facet normal 0 0 1
    outer loop
      vertex -12.9066 5.34609 45.72
      vertex -12.9066 -5.34609 45.72
      vertex -12.0984 -6.985 45.72
    endloop
  endfacet
  facet normal -0 0 1
    outer loop
      vertex -13.494 3.6157 45.72
      vertex -12.9066 -5.34609 45.72
      vertex -12.9066 5.34609 45.72
    endloop
  endfacet
  facet normal 0 0 1
    outer loop
      vertex -13.494 3.6157 45.72
      vertex -13.494 -3.6157 45.72
      vertex -12.9066 -5.34609 45.72
    endloop
  endfacet
  facet normal -0 0 1
    outer loop
      vertex -13.8505 1.82345 45.72
      vertex -13.494 -3.6157 45.72
      vertex -13.494 3.6157 45.72
    endloop
  endfacet
  facet normal 0 0 1
    outer loop
      vertex -13.8505 1.82345 45.72
      vertex -13.8505 -1.82345 45.72
      vertex -13.494 -3.6157 45.72
    endloop
  endfacet
  facet normal 0 -0 1
    outer loop
      vertex -13.8505 -1.82345 45.72
      vertex -13.8505 1.82345 45.72
      vertex -13.97 0 45.72
    endloop
  endfacet
  facet normal -0.751851 -0.659333 -0
    outer loop
      vertex -9.87828 -9.87828 45.72
      vertex -11.0831 -8.5044 11.0831
      vertex -9.87828 -9.87828 9.87828
    endloop
  endfacet
  facet normal -0.751851 -0.659333 0
    outer loop
      vertex -11.0831 -8.5044 11.0831
      vertex -9.87828 -9.87828 45.72
      vertex -11.0831 -8.5044 45.72
    endloop
  endfacet
  facet normal -0.896877 0.442279 0
    outer loop
      vertex -12.9066 5.34609 12.9066
      vertex -12.0984 6.985 45.72
      vertex -12.0984 6.985 12.0984
    endloop
  endfacet
  facet normal -0.896877 0.442279 0
    outer loop
      vertex -12.0984 6.985 45.72
      vertex -12.9066 5.34609 12.9066
      vertex -12.9066 5.34609 45.72
    endloop
  endfacet
  facet normal -0.659333 -0.751851 0
    outer loop
      vertex -9.87828 -9.87828 9.87828
      vertex -8.5044 -11.0831 45.72
      vertex -9.87828 -9.87828 45.72
    endloop
  endfacet
  facet normal -0.659333 -0.751851 -0
    outer loop
      vertex -8.5044 -11.0831 45.72
      vertex -9.87828 -9.87828 9.87828
      vertex -8.5044 -11.0831 8.5044
    endloop
  endfacet
  facet normal -0.19509 -0.980785 0
    outer loop
      vertex -3.6157 -13.494 3.6157
      vertex -1.82345 -13.8505 45.72
      vertex -3.6157 -13.494 45.72
    endloop
  endfacet
  facet normal -0.19509 -0.980785 -0
    outer loop
      vertex -1.82345 -13.8505 45.72
      vertex -3.6157 -13.494 3.6157
      vertex -1.82345 -13.8505 1.82345
    endloop
  endfacet
  facet normal -0.321445 -0.946928 0
    outer loop
      vertex -5.34609 -12.9066 5.34609
      vertex -3.6157 -13.494 45.72
      vertex -5.34609 -12.9066 45.72
    endloop
  endfacet
  facet normal -0.321445 -0.946928 -0
    outer loop
      vertex -3.6157 -13.494 45.72
      vertex -5.34609 -12.9066 5.34609
      vertex -3.6157 -13.494 3.6157
    endloop
  endfacet
  facet normal -0.19509 0.980785 0
    outer loop
      vertex -1.82345 13.8505 45.72
      vertex -3.6157 13.494 3.6157
      vertex -3.6157 13.494 45.72
    endloop
  endfacet
  facet normal -0.19509 0.980785 0
    outer loop
      vertex -3.6157 13.494 3.6157
      vertex -1.82345 13.8505 45.72
      vertex -1.82345 13.8505 1.82345
    endloop
  endfacet
  facet normal 0.659333 -0.751851 0
    outer loop
      vertex 8.5044 -11.0831 45.72
      vertex 9.87828 -9.87828 9.87828
      vertex 9.87828 -9.87828 45.72
    endloop
  endfacet
  facet normal 0.659333 -0.751851 0
    outer loop
      vertex 9.87828 -9.87828 9.87828
      vertex 8.5044 -11.0831 45.72
      vertex 8.5044 -11.0831 8.5044
    endloop
  endfacet
  facet normal 0.555596 -0.831452 0
    outer loop
      vertex 6.985 -12.0984 45.72
      vertex 8.5044 -11.0831 8.5044
      vertex 8.5044 -11.0831 45.72
    endloop
  endfacet
  facet normal 0.555596 -0.831452 0
    outer loop
      vertex 8.5044 -11.0831 8.5044
      vertex 6.985 -12.0984 45.72
      vertex 6.985 -12.0984 6.985
    endloop
  endfacet
  facet normal 0.896877 -0.442279 0
    outer loop
      vertex 12.0984 -6.985 45.72
      vertex 12.9066 -5.34609 12.9066
      vertex 12.9066 -5.34609 45.72
    endloop
  endfacet
  facet normal 0.896877 -0.442279 0
    outer loop
      vertex 12.9066 -5.34609 12.9066
      vertex 12.0984 -6.985 45.72
      vertex 12.0984 -6.985 12.0984
    endloop
  endfacet
  facet normal -0.0653948 -0.997859 0
    outer loop
      vertex -1.82345 -13.8505 1.82345
      vertex 0 -13.97 45.72
      vertex -1.82345 -13.8505 45.72
    endloop
  endfacet
  facet normal -0.0653948 -0.997859 -0
    outer loop
      vertex 0 -13.97 45.72
      vertex -1.82345 -13.8505 1.82345
      vertex 0 -13.97 0
    endloop
  endfacet
endsolid OpenSCAD_Model
