ISO-10303-21;
HEADER;
FILE_DESCRIPTION(('Open CASCADE Model'),'2;1');
FILE_NAME('Open CASCADE Shape Model','1970-01-01T00:00:00',('Author'),(
    'Open CASCADE'),'Open CASCADE STEP processor 7.8','build123d',
  'Unknown');
FILE_SCHEMA(('AUTOMOTIVE_DESIGN { 1 0 10303 214 1 1 1 1 }'));
ENDSEC;
DATA;
#1 = APPLICATION_PROTOCOL_DEFINITION('international standard',
  'automotive_design',2000,#2);
#2 = APPLICATION_CONTEXT(
  'core data for automotive mechanical design processes');
#3 = SHAPE_DEFINITION_REPRESENTATION(#4,#10);
#4 = PRODUCT_DEFINITION_SHAPE('','',#5);
#5 = PRODUCT_DEFINITION('design','',#6,#9);
#6 = PRODUCT_DEFINITION_FORMATION('','',#7);
#7 = PRODUCT('SOLID','SOLID','',(#8));
#8 = PRODUCT_CONTEXT('',#2,'mechanical');
#9 = PRODUCT_DEFINITION_CONTEXT('part definition',#2,'design');
#10 = ADVANCED_BREP_SHAPE_REPRESENTATION('',(#11,#15),#346);
#11 = AXIS2_PLACEMENT_3D('',#12,#13,#14);
#12 = CARTESIAN_POINT('',(0.,0.,0.));
#13 = DIRECTION('',(0.,0.,1.));
#14 = DIRECTION('',(1.,0.,-0.));
#15 = MANIFOLD_SOLID_BREP('',#16);
#16 = CLOSED_SHELL('',(#17,#276,#334,#338,#342));
#17 = ADVANCED_FACE('',(#18),#33,.T.);
#18 = FACE_BOUND('',#19,.F.);
#19 = EDGE_LOOP('',(#20,#68,#104,#127,#154,#155,#191,#225,#248,#275));
#20 = ORIENTED_EDGE('',*,*,#21,.F.);
#21 = EDGE_CURVE('',#22,#24,#26,.T.);
#22 = VERTEX_POINT('',#23);
#23 = CARTESIAN_POINT('',(0.,16.7,-1.022580077288E-15));
#24 = VERTEX_POINT('',#25);
#25 = CARTESIAN_POINT('',(16.7,0.,-16.7));
#26 = SURFACE_CURVE('',#27,(#32,#50),.PCURVE_S1.);
#27 = ELLIPSE('',#28,23.617366491631,16.7);
#28 = AXIS2_PLACEMENT_3D('',#29,#30,#31);
#29 = CARTESIAN_POINT('',(0.,0.,0.));
#30 = DIRECTION('',(-0.707106781187,-0.,-0.707106781187));
#31 = DIRECTION('',(0.707106781187,0.,-0.707106781187));
#32 = PCURVE('',#33,#38);
#33 = CYLINDRICAL_SURFACE('',#34,16.7);
#34 = AXIS2_PLACEMENT_3D('',#35,#36,#37);
#35 = CARTESIAN_POINT('',(0.,0.,-32.));
#36 = DIRECTION('',(-0.,-0.,-1.));
#37 = DIRECTION('',(1.,0.,0.));
#38 = DEFINITIONAL_REPRESENTATION('',(#39),#49);
#39 = B_SPLINE_CURVE_WITH_KNOTS('',8,(#40,#41,#42,#43,#44,#45,#46,#47,
    #48),.UNSPECIFIED.,.F.,.F.,(9,9),(4.712388980385,6.28318530718),
  .PIECEWISE_BEZIER_KNOTS.);
#40 = CARTESIAN_POINT('',(-1.570796326795,-32.));
#41 = CARTESIAN_POINT('',(-1.374446785946,-28.72096266781));
#42 = CARTESIAN_POINT('',(-1.178097245097,-25.44192455707));
#43 = CARTESIAN_POINT('',(-0.981747704244,-22.35552853775));
#44 = CARTESIAN_POINT('',(-0.785398163403,-19.65437886538));
#45 = CARTESIAN_POINT('',(-0.589048622545,-17.50743862603));
#46 = CARTESIAN_POINT('',(-0.3926990817,-16.03581495896));
#47 = CARTESIAN_POINT('',(-0.196349540849,-15.3));
#48 = CARTESIAN_POINT('',(-2.449293598295E-16,-15.3));
#49 = ( GEOMETRIC_REPRESENTATION_CONTEXT(2) 
PARAMETRIC_REPRESENTATION_CONTEXT() REPRESENTATION_CONTEXT('2D SPACE',''
  ) );
#50 = PCURVE('',#51,#56);
#51 = CYLINDRICAL_SURFACE('',#52,16.7);
#52 = AXIS2_PLACEMENT_3D('',#53,#54,#55);
#53 = CARTESIAN_POINT('',(0.,0.,0.));
#54 = DIRECTION('',(-1.,-0.,0.));
#55 = DIRECTION('',(0.,0.,-1.));
#56 = DEFINITIONAL_REPRESENTATION('',(#57),#67);
#57 = B_SPLINE_CURVE_WITH_KNOTS('',8,(#58,#59,#60,#61,#62,#63,#64,#65,
    #66),.UNSPECIFIED.,.F.,.F.,(9,9),(4.712388980385,6.28318530718),
  .PIECEWISE_BEZIER_KNOTS.);
#58 = CARTESIAN_POINT('',(-1.570796326795,3.067740231864E-15));
#59 = CARTESIAN_POINT('',(-1.374446785946,-3.279037332184));
#60 = CARTESIAN_POINT('',(-1.178097245097,-6.558075442921));
#61 = CARTESIAN_POINT('',(-0.981747704244,-9.644471462183));
#62 = CARTESIAN_POINT('',(-0.785398163403,-12.34562113461));
#63 = CARTESIAN_POINT('',(-0.589048622545,-14.49256137386));
#64 = CARTESIAN_POINT('',(-0.3926990817,-15.96418504102));
#65 = CARTESIAN_POINT('',(-0.196349540849,-16.7));
#66 = CARTESIAN_POINT('',(-2.449293598295E-16,-16.7));
#67 = ( GEOMETRIC_REPRESENTATION_CONTEXT(2) 
PARAMETRIC_REPRESENTATION_CONTEXT() REPRESENTATION_CONTEXT('2D SPACE',''
  ) );
#68 = ORIENTED_EDGE('',*,*,#69,.T.);
#69 = EDGE_CURVE('',#22,#70,#72,.T.);
#70 = VERTEX_POINT('',#71);
#71 = CARTESIAN_POINT('',(16.7,0.,16.7));
#72 = SURFACE_CURVE('',#73,(#78,#91),.PCURVE_S1.);
#73 = ELLIPSE('',#74,23.617366491631,16.7);
#74 = AXIS2_PLACEMENT_3D('',#75,#76,#77);
#75 = CARTESIAN_POINT('',(0.,0.,0.));
#76 = DIRECTION('',(0.707106781187,0.,-0.707106781187));
#77 = DIRECTION('',(-0.707106781187,-0.,-0.707106781187));
#78 = PCURVE('',#33,#79);
#79 = DEFINITIONAL_REPRESENTATION('',(#80),#90);
#80 = B_SPLINE_CURVE_WITH_KNOTS('',8,(#81,#82,#83,#84,#85,#86,#87,#88,
    #89),.UNSPECIFIED.,.F.,.F.,(9,9),(1.570796326795,3.14159265359),
  .PIECEWISE_BEZIER_KNOTS.);
#81 = CARTESIAN_POINT('',(-1.570796326795,-32.));
#82 = CARTESIAN_POINT('',(-1.374446785946,-35.27903733218));
#83 = CARTESIAN_POINT('',(-1.178097245096,-38.55807544289));
#84 = CARTESIAN_POINT('',(-0.981747704245,-41.64447146197));
#85 = CARTESIAN_POINT('',(-0.785398163394,-44.34562113488));
#86 = CARTESIAN_POINT('',(-0.589048622548,-46.49256137368));
#87 = CARTESIAN_POINT('',(-0.392699081699,-47.96418504103));
#88 = CARTESIAN_POINT('',(-0.196349540849,-48.7));
#89 = CARTESIAN_POINT('',(-1.224646799147E-16,-48.7));
#90 = ( GEOMETRIC_REPRESENTATION_CONTEXT(2) 
PARAMETRIC_REPRESENTATION_CONTEXT() REPRESENTATION_CONTEXT('2D SPACE',''
  ) );
#91 = PCURVE('',#51,#92);
#92 = DEFINITIONAL_REPRESENTATION('',(#93),#103);
#93 = B_SPLINE_CURVE_WITH_KNOTS('',8,(#94,#95,#96,#97,#98,#99,#100,#101,
    #102),.UNSPECIFIED.,.F.,.F.,(9,9),(1.570796326795,3.14159265359),
  .PIECEWISE_BEZIER_KNOTS.);
#94 = CARTESIAN_POINT('',(-1.570796326795,1.022580077288E-15));
#95 = CARTESIAN_POINT('',(-1.767145867644,-3.279037332184));
#96 = CARTESIAN_POINT('',(-1.963495408489,-6.558075442923));
#97 = CARTESIAN_POINT('',(-2.159844949349,-9.644471462147));
#98 = CARTESIAN_POINT('',(-2.356194490172,-12.34562113465));
#99 = CARTESIAN_POINT('',(-2.552544031047,-14.49256137383));
#100 = CARTESIAN_POINT('',(-2.748893571887,-15.96418504102));
#101 = CARTESIAN_POINT('',(-2.94524311274,-16.7));
#102 = CARTESIAN_POINT('',(-3.14159265359,-16.7));
#103 = ( GEOMETRIC_REPRESENTATION_CONTEXT(2) 
PARAMETRIC_REPRESENTATION_CONTEXT() REPRESENTATION_CONTEXT('2D SPACE',''
  ) );
#104 = ORIENTED_EDGE('',*,*,#105,.T.);
#105 = EDGE_CURVE('',#70,#106,#108,.T.);
#106 = VERTEX_POINT('',#107);
#107 = CARTESIAN_POINT('',(16.7,0.,32.));
#108 = SEAM_CURVE('',#109,(#113,#120),.PCURVE_S1.);
#109 = LINE('',#110,#111);
#110 = CARTESIAN_POINT('',(16.7,0.,-32.));
#111 = VECTOR('',#112,1.);
#112 = DIRECTION('',(0.,0.,1.));
#113 = PCURVE('',#33,#114);
#114 = DEFINITIONAL_REPRESENTATION('',(#115),#119);
#115 = LINE('',#116,#117);
#116 = CARTESIAN_POINT('',(-0.,0.));
#117 = VECTOR('',#118,1.);
#118 = DIRECTION('',(-0.,-1.));
#119 = ( GEOMETRIC_REPRESENTATION_CONTEXT(2) 
PARAMETRIC_REPRESENTATION_CONTEXT() REPRESENTATION_CONTEXT('2D SPACE',''
  ) );
#120 = PCURVE('',#33,#121);
#121 = DEFINITIONAL_REPRESENTATION('',(#122),#126);
#122 = LINE('',#123,#124);
#123 = CARTESIAN_POINT('',(-6.28318530718,0.));
#124 = VECTOR('',#125,1.);
#125 = DIRECTION('',(-0.,-1.));
#126 = ( GEOMETRIC_REPRESENTATION_CONTEXT(2) 
PARAMETRIC_REPRESENTATION_CONTEXT() REPRESENTATION_CONTEXT('2D SPACE',''
  ) );
#127 = ORIENTED_EDGE('',*,*,#128,.T.);
#128 = EDGE_CURVE('',#106,#106,#129,.T.);
#129 = SURFACE_CURVE('',#130,(#135,#142),.PCURVE_S1.);
#130 = CIRCLE('',#131,16.7);
#131 = AXIS2_PLACEMENT_3D('',#132,#133,#134);
#132 = CARTESIAN_POINT('',(0.,0.,32.));
#133 = DIRECTION('',(0.,0.,1.));
#134 = DIRECTION('',(1.,0.,0.));
#135 = PCURVE('',#33,#136);
#136 = DEFINITIONAL_REPRESENTATION('',(#137),#141);
#137 = LINE('',#138,#139);
#138 = CARTESIAN_POINT('',(-0.,-64.));
#139 = VECTOR('',#140,1.);
#140 = DIRECTION('',(-1.,0.));
#141 = ( GEOMETRIC_REPRESENTATION_CONTEXT(2) 
PARAMETRIC_REPRESENTATION_CONTEXT() REPRESENTATION_CONTEXT('2D SPACE',''
  ) );
#142 = PCURVE('',#143,#148);
#143 = PLANE('',#144);
#144 = AXIS2_PLACEMENT_3D('',#145,#146,#147);
#145 = CARTESIAN_POINT('',(-1.637652853341E-15,1.283463372483E-15,32.));
#146 = DIRECTION('',(0.,0.,1.));
#147 = DIRECTION('',(1.,0.,0.));
#148 = DEFINITIONAL_REPRESENTATION('',(#149),#153);
#149 = CIRCLE('',#150,16.7);
#150 = AXIS2_PLACEMENT_2D('',#151,#152);
#151 = CARTESIAN_POINT('',(1.637652853341E-15,-1.283463372483E-15));
#152 = DIRECTION('',(1.,0.));
#153 = ( GEOMETRIC_REPRESENTATION_CONTEXT(2) 
PARAMETRIC_REPRESENTATION_CONTEXT() REPRESENTATION_CONTEXT('2D SPACE',''
  ) );
#154 = ORIENTED_EDGE('',*,*,#105,.F.);
#155 = ORIENTED_EDGE('',*,*,#156,.T.);
#156 = EDGE_CURVE('',#70,#157,#159,.T.);
#157 = VERTEX_POINT('',#158);
#158 = CARTESIAN_POINT('',(0.,-16.7,3.067740231864E-15));
#159 = SURFACE_CURVE('',#160,(#165,#178),.PCURVE_S1.);
#160 = ELLIPSE('',#161,23.617366491631,16.7);
#161 = AXIS2_PLACEMENT_3D('',#162,#163,#164);
#162 = CARTESIAN_POINT('',(0.,0.,0.));
#163 = DIRECTION('',(0.707106781187,0.,-0.707106781187));
#164 = DIRECTION('',(-0.707106781187,-0.,-0.707106781187));
#165 = PCURVE('',#33,#166);
#166 = DEFINITIONAL_REPRESENTATION('',(#167),#177);
#167 = B_SPLINE_CURVE_WITH_KNOTS('',8,(#168,#169,#170,#171,#172,#173,
    #174,#175,#176),.UNSPECIFIED.,.F.,.F.,(9,9),(3.14159265359,
    4.71238912398),.PIECEWISE_BEZIER_KNOTS.);
#168 = CARTESIAN_POINT('',(-6.28318530718,-48.7));
#169 = CARTESIAN_POINT('',(-6.086835748381,-48.7));
#170 = CARTESIAN_POINT('',(-5.890486189582,-47.96418490644));
#171 = CARTESIAN_POINT('',(-5.694136630781,-46.49256097032));
#172 = CARTESIAN_POINT('',(-5.497787071986,-44.34562034939));
#173 = CARTESIAN_POINT('',(-5.301437513184,-41.64447022767));
#174 = CARTESIAN_POINT('',(-5.105087954387,-38.55807374999));
#175 = CARTESIAN_POINT('',(-4.908738395588,-35.2790352339));
#176 = CARTESIAN_POINT('',(-4.71238883679,-31.99999760196));
#177 = ( GEOMETRIC_REPRESENTATION_CONTEXT(2) 
PARAMETRIC_REPRESENTATION_CONTEXT() REPRESENTATION_CONTEXT('2D SPACE',''
  ) );
#178 = PCURVE('',#51,#179);
#179 = DEFINITIONAL_REPRESENTATION('',(#180),#190);
#180 = B_SPLINE_CURVE_WITH_KNOTS('',8,(#181,#182,#183,#184,#185,#186,
    #187,#188,#189),.UNSPECIFIED.,.F.,.F.,(9,9),(3.14159265359,
    4.71238912398),.PIECEWISE_BEZIER_KNOTS.);
#181 = CARTESIAN_POINT('',(-3.14159265359,-16.7));
#182 = CARTESIAN_POINT('',(-3.337942212389,-16.7));
#183 = CARTESIAN_POINT('',(-3.534291771191,-15.96418490648));
#184 = CARTESIAN_POINT('',(-3.730641329987,-14.49256097029));
#185 = CARTESIAN_POINT('',(-3.926990888795,-12.34562034955));
#186 = CARTESIAN_POINT('',(-4.123340447579,-9.644470227569));
#187 = CARTESIAN_POINT('',(-4.319690006385,-6.558073750028));
#188 = CARTESIAN_POINT('',(-4.516039565181,-3.279035233901));
#189 = CARTESIAN_POINT('',(-4.71238912398,2.39803852717E-06));
#190 = ( GEOMETRIC_REPRESENTATION_CONTEXT(2) 
PARAMETRIC_REPRESENTATION_CONTEXT() REPRESENTATION_CONTEXT('2D SPACE',''
  ) );
#191 = ORIENTED_EDGE('',*,*,#192,.F.);
#192 = EDGE_CURVE('',#24,#157,#193,.T.);
#193 = SURFACE_CURVE('',#194,(#199,#212),.PCURVE_S1.);
#194 = ELLIPSE('',#195,23.617366491631,16.7);
#195 = AXIS2_PLACEMENT_3D('',#196,#197,#198);
#196 = CARTESIAN_POINT('',(0.,0.,0.));
#197 = DIRECTION('',(-0.707106781187,-0.,-0.707106781187));
#198 = DIRECTION('',(0.707106781187,0.,-0.707106781187));
#199 = PCURVE('',#33,#200);
#200 = DEFINITIONAL_REPRESENTATION('',(#201),#211);
#201 = B_SPLINE_CURVE_WITH_KNOTS('',8,(#202,#203,#204,#205,#206,#207,
    #208,#209,#210),.UNSPECIFIED.,.F.,.F.,(9,9),(0.,1.570796326912),
  .PIECEWISE_BEZIER_KNOTS.);
#202 = CARTESIAN_POINT('',(-6.28318530718,-15.3));
#203 = CARTESIAN_POINT('',(-6.086835766316,-15.3));
#204 = CARTESIAN_POINT('',(-5.890486225453,-16.03581495906));
#205 = CARTESIAN_POINT('',(-5.694136684584,-17.50743862643));
#206 = CARTESIAN_POINT('',(-5.497787143732,-19.65437886591));
#207 = CARTESIAN_POINT('',(-5.301437602856,-22.35552853882));
#208 = CARTESIAN_POINT('',(-5.105088061997,-25.44192455845));
#209 = CARTESIAN_POINT('',(-4.908738521131,-28.72096266953));
#210 = CARTESIAN_POINT('',(-4.712388980267,-32.00000000196));
#211 = ( GEOMETRIC_REPRESENTATION_CONTEXT(2) 
PARAMETRIC_REPRESENTATION_CONTEXT() REPRESENTATION_CONTEXT('2D SPACE',''
  ) );
#212 = PCURVE('',#51,#213);
#213 = DEFINITIONAL_REPRESENTATION('',(#214),#224);
#214 = B_SPLINE_CURVE_WITH_KNOTS('',8,(#215,#216,#217,#218,#219,#220,
    #221,#222,#223),.UNSPECIFIED.,.F.,.F.,(9,9),(0.,1.570796326912),
  .PIECEWISE_BEZIER_KNOTS.);
#215 = CARTESIAN_POINT('',(-6.28318530718,-16.7));
#216 = CARTESIAN_POINT('',(-6.086835766316,-16.7));
#217 = CARTESIAN_POINT('',(-5.890486225453,-15.96418504091));
#218 = CARTESIAN_POINT('',(-5.694136684584,-14.49256137355));
#219 = CARTESIAN_POINT('',(-5.497787143732,-12.34562113398));
#220 = CARTESIAN_POINT('',(-5.301437602856,-9.644471461208));
#221 = CARTESIAN_POINT('',(-5.105088061997,-6.558075441526));
#222 = CARTESIAN_POINT('',(-4.908738521131,-3.279037330468));
#223 = CARTESIAN_POINT('',(-4.712388980267,1.961466721203E-09));
#224 = ( GEOMETRIC_REPRESENTATION_CONTEXT(2) 
PARAMETRIC_REPRESENTATION_CONTEXT() REPRESENTATION_CONTEXT('2D SPACE',''
  ) );
#225 = ORIENTED_EDGE('',*,*,#226,.F.);
#226 = EDGE_CURVE('',#227,#24,#229,.T.);
#227 = VERTEX_POINT('',#228);
#228 = CARTESIAN_POINT('',(16.7,0.,-32.));
#229 = SEAM_CURVE('',#230,(#234,#241),.PCURVE_S1.);
#230 = LINE('',#231,#232);
#231 = CARTESIAN_POINT('',(16.7,0.,-32.));
#232 = VECTOR('',#233,1.);
#233 = DIRECTION('',(0.,0.,1.));
#234 = PCURVE('',#33,#235);
#235 = DEFINITIONAL_REPRESENTATION('',(#236),#240);
#236 = LINE('',#237,#238);
#237 = CARTESIAN_POINT('',(-6.28318530718,0.));
#238 = VECTOR('',#239,1.);
#239 = DIRECTION('',(-0.,-1.));
#240 = ( GEOMETRIC_REPRESENTATION_CONTEXT(2) 
PARAMETRIC_REPRESENTATION_CONTEXT() REPRESENTATION_CONTEXT('2D SPACE',''
  ) );
#241 = PCURVE('',#33,#242);
#242 = DEFINITIONAL_REPRESENTATION('',(#243),#247);
#243 = LINE('',#244,#245);
#244 = CARTESIAN_POINT('',(-0.,0.));
#245 = VECTOR('',#246,1.);
#246 = DIRECTION('',(-0.,-1.));
#247 = ( GEOMETRIC_REPRESENTATION_CONTEXT(2) 
PARAMETRIC_REPRESENTATION_CONTEXT() REPRESENTATION_CONTEXT('2D SPACE',''
  ) );
#248 = ORIENTED_EDGE('',*,*,#249,.F.);
#249 = EDGE_CURVE('',#227,#227,#250,.T.);
#250 = SURFACE_CURVE('',#251,(#256,#263),.PCURVE_S1.);
#251 = CIRCLE('',#252,16.7);
#252 = AXIS2_PLACEMENT_3D('',#253,#254,#255);
#253 = CARTESIAN_POINT('',(0.,0.,-32.));
#254 = DIRECTION('',(0.,0.,1.));
#255 = DIRECTION('',(1.,0.,0.));
#256 = PCURVE('',#33,#257);
#257 = DEFINITIONAL_REPRESENTATION('',(#258),#262);
#258 = LINE('',#259,#260);
#259 = CARTESIAN_POINT('',(-0.,0.));
#260 = VECTOR('',#261,1.);
#261 = DIRECTION('',(-1.,0.));
#262 = ( GEOMETRIC_REPRESENTATION_CONTEXT(2) 
PARAMETRIC_REPRESENTATION_CONTEXT() REPRESENTATION_CONTEXT('2D SPACE',''
  ) );
#263 = PCURVE('',#264,#269);
#264 = PLANE('',#265);
#265 = AXIS2_PLACEMENT_3D('',#266,#267,#268);
#266 = CARTESIAN_POINT('',(-1.637652853341E-15,1.283463372483E-15,-32.)
  );
#267 = DIRECTION('',(0.,0.,1.));
#268 = DIRECTION('',(1.,0.,0.));
#269 = DEFINITIONAL_REPRESENTATION('',(#270),#274);
#270 = CIRCLE('',#271,16.7);
#271 = AXIS2_PLACEMENT_2D('',#272,#273);
#272 = CARTESIAN_POINT('',(1.637652853341E-15,-1.283463372483E-15));
#273 = DIRECTION('',(1.,0.));
#274 = ( GEOMETRIC_REPRESENTATION_CONTEXT(2) 
PARAMETRIC_REPRESENTATION_CONTEXT() REPRESENTATION_CONTEXT('2D SPACE',''
  ) );
#275 = ORIENTED_EDGE('',*,*,#226,.T.);
#276 = ADVANCED_FACE('',(#277),#51,.T.);
#277 = FACE_BOUND('',#278,.F.);
#278 = EDGE_LOOP('',(#279,#280,#303,#330,#331,#332,#333));
#279 = ORIENTED_EDGE('',*,*,#21,.T.);
#280 = ORIENTED_EDGE('',*,*,#281,.T.);
#281 = EDGE_CURVE('',#24,#282,#284,.T.);
#282 = VERTEX_POINT('',#283);
#283 = CARTESIAN_POINT('',(24.,0.,-16.7));
#284 = SEAM_CURVE('',#285,(#289,#296),.PCURVE_S1.);
#285 = LINE('',#286,#287);
#286 = CARTESIAN_POINT('',(0.,0.,-16.7));
#287 = VECTOR('',#288,1.);
#288 = DIRECTION('',(1.,0.,0.));
#289 = PCURVE('',#51,#290);
#290 = DEFINITIONAL_REPRESENTATION('',(#291),#295);
#291 = LINE('',#292,#293);
#292 = CARTESIAN_POINT('',(-6.28318530718,0.));
#293 = VECTOR('',#294,1.);
#294 = DIRECTION('',(-0.,-1.));
#295 = ( GEOMETRIC_REPRESENTATION_CONTEXT(2) 
PARAMETRIC_REPRESENTATION_CONTEXT() REPRESENTATION_CONTEXT('2D SPACE',''
  ) );
#296 = PCURVE('',#51,#297);
#297 = DEFINITIONAL_REPRESENTATION('',(#298),#302);
#298 = LINE('',#299,#300);
#299 = CARTESIAN_POINT('',(-0.,0.));
#300 = VECTOR('',#301,1.);
#301 = DIRECTION('',(-0.,-1.));
#302 = ( GEOMETRIC_REPRESENTATION_CONTEXT(2) 
PARAMETRIC_REPRESENTATION_CONTEXT() REPRESENTATION_CONTEXT('2D SPACE',''
  ) );
#303 = ORIENTED_EDGE('',*,*,#304,.T.);
#304 = EDGE_CURVE('',#282,#282,#305,.T.);
#305 = SURFACE_CURVE('',#306,(#311,#318),.PCURVE_S1.);
#306 = CIRCLE('',#307,16.7);
#307 = AXIS2_PLACEMENT_3D('',#308,#309,#310);
#308 = CARTESIAN_POINT('',(24.,0.,0.));
#309 = DIRECTION('',(1.,-0.,0.));
#310 = DIRECTION('',(0.,0.,-1.));
#311 = PCURVE('',#51,#312);
#312 = DEFINITIONAL_REPRESENTATION('',(#313),#317);
#313 = LINE('',#314,#315);
#314 = CARTESIAN_POINT('',(-0.,-24.));
#315 = VECTOR('',#316,1.);
#316 = DIRECTION('',(-1.,0.));
#317 = ( GEOMETRIC_REPRESENTATION_CONTEXT(2) 
PARAMETRIC_REPRESENTATION_CONTEXT() REPRESENTATION_CONTEXT('2D SPACE',''
  ) );
#318 = PCURVE('',#319,#324);
#319 = PLANE('',#320);
#320 = AXIS2_PLACEMENT_3D('',#321,#322,#323);
#321 = CARTESIAN_POINT('',(24.,1.283463372483E-15,1.637652853341E-15));
#322 = DIRECTION('',(1.,0.,0.));
#323 = DIRECTION('',(0.,0.,-1.));
#324 = DEFINITIONAL_REPRESENTATION('',(#325),#329);
#325 = CIRCLE('',#326,16.7);
#326 = AXIS2_PLACEMENT_2D('',#327,#328);
#327 = CARTESIAN_POINT('',(1.637652853341E-15,-1.283463372483E-15));
#328 = DIRECTION('',(1.,0.));
#329 = ( GEOMETRIC_REPRESENTATION_CONTEXT(2) 
PARAMETRIC_REPRESENTATION_CONTEXT() REPRESENTATION_CONTEXT('2D SPACE',''
  ) );
#330 = ORIENTED_EDGE('',*,*,#281,.F.);
#331 = ORIENTED_EDGE('',*,*,#192,.T.);
#332 = ORIENTED_EDGE('',*,*,#156,.F.);
#333 = ORIENTED_EDGE('',*,*,#69,.F.);
#334 = ADVANCED_FACE('',(#335),#264,.F.);
#335 = FACE_BOUND('',#336,.F.);
#336 = EDGE_LOOP('',(#337));
#337 = ORIENTED_EDGE('',*,*,#249,.T.);
#338 = ADVANCED_FACE('',(#339),#319,.T.);
#339 = FACE_BOUND('',#340,.T.);
#340 = EDGE_LOOP('',(#341));
#341 = ORIENTED_EDGE('',*,*,#304,.T.);
#342 = ADVANCED_FACE('',(#343),#143,.T.);
#343 = FACE_BOUND('',#344,.T.);
#344 = EDGE_LOOP('',(#345));
#345 = ORIENTED_EDGE('',*,*,#128,.T.);
#346 = ( GEOMETRIC_REPRESENTATION_CONTEXT(3) 
GLOBAL_UNCERTAINTY_ASSIGNED_CONTEXT((#350)) GLOBAL_UNIT_ASSIGNED_CONTEXT
((#347,#348,#349)) REPRESENTATION_CONTEXT('Context #1',
  '3D Context with UNIT and UNCERTAINTY') );
#347 = ( LENGTH_UNIT() NAMED_UNIT(*) SI_UNIT(.MILLI.,.METRE.) );
#348 = ( NAMED_UNIT(*) PLANE_ANGLE_UNIT() SI_UNIT($,.RADIAN.) );
#349 = ( NAMED_UNIT(*) SI_UNIT($,.STERADIAN.) SOLID_ANGLE_UNIT() );
#350 = UNCERTAINTY_MEASURE_WITH_UNIT(LENGTH_MEASURE(1.E-07),#347,
  'distance_accuracy_value','confusion accuracy');
#351 = PRODUCT_RELATED_PRODUCT_CATEGORY('part',$,(#7));
ENDSEC;
END-ISO-10303-21;
