<svg xmlns="http://www.w3.org/2000/svg" viewBox="0 0 1000 620" role="img" aria-label="Dugout H completed-plan XYZ hydraulic edge replay"><style>text{font-family:Arial,sans-serif;fill:#e2e8f0}.minor{fill:#94a3b8;font-size:18px}.major{font-size:30px;font-weight:bold}polyline{fill:none;stroke-linecap:round;stroke-linejoin:round}.grid{stroke:#1e3a5f;stroke-width:1}</style><rect width="1000" height="620" fill="#07111f"/><g opacity=".75"><path class="grid" d="M80 500H920M80 420H920M80 340H920M80 260H920"/></g><text class="major" x="34" y="50">Dugout H - sealed completed-plan XYZ hydraulic replay</text><text class="minor" x="34" y="82">X/Y: completed FP-3 vectors. Z: HASS report. Diameter: HASS inside diameter, not nominal fabrication size.</text><text class="minor" x="34" y="108">Scope: 20 on-plan calculated edges. Riser reference and drain routing remain separate, held claims.</text><polyline data-pipe-id="1" data-hydraulic-inside-diameter-in="1.515" points="473.92,146.17 529.92,134.97" stroke="#22d3ee" stroke-width="5"/><polyline data-pipe-id="2" data-hydraulic-inside-diameter-in="1.515" points="529.92,134.97 585.92,123.77" stroke="#22d3ee" stroke-width="5"/><polyline data-pipe-id="3" data-hydraulic-inside-diameter-in="1.515" points="585.92,123.77 641.12,112.73" stroke="#22d3ee" stroke-width="5"/><polyline data-pipe-id="4" data-hydraulic-inside-diameter-in="1.515" points="641.12,112.73 676.91,105.58" stroke="#22d3ee" stroke-width="5"/><polyline data-pipe-id="5" data-hydraulic-inside-diameter-in="1.515" points="676.91,105.58 676.91,113.08" stroke="#22d3ee" stroke-width="5"/><polyline data-pipe-id="6" data-hydraulic-inside-diameter-in="2.729" points="676.91,113.08 720.91,136.88" stroke="#fb923c" stroke-width="8"/><polyline data-pipe-id="7" data-hydraulic-inside-diameter-in="1.515" points="720.91,136.88 720.91,129.38" stroke="#22d3ee" stroke-width="5"/><polyline data-pipe-id="8" data-hydraulic-inside-diameter-in="1.515" points="515.89,170.38 555.89,162.38" stroke="#22d3ee" stroke-width="5"/><polyline data-pipe-id="9" data-hydraulic-inside-diameter-in="1.515" points="555.89,162.38 595.95,154.37" stroke="#22d3ee" stroke-width="5"/><polyline data-pipe-id="10" data-hydraulic-inside-diameter-in="1.515" points="595.95,154.37 633.92,146.77" stroke="#22d3ee" stroke-width="5"/><polyline data-pipe-id="11" data-hydraulic-inside-diameter-in="1.515" points="633.92,146.77 665.92,140.37" stroke="#22d3ee" stroke-width="5"/><polyline data-pipe-id="12" data-hydraulic-inside-diameter-in="1.515" points="665.92,140.37 689.92,135.57" stroke="#22d3ee" stroke-width="5"/><polyline data-pipe-id="13" data-hydraulic-inside-diameter-in="1.515" points="689.92,135.57 720.91,129.38" stroke="#22d3ee" stroke-width="5"/><polyline data-pipe-id="14" data-hydraulic-inside-diameter-in="2.729" points="720.91,136.88 760.91,174.88" stroke="#fb923c" stroke-width="8"/><polyline data-pipe-id="15" data-hydraulic-inside-diameter-in="1.515" points="760.91,174.88 760.91,167.38" stroke="#22d3ee" stroke-width="5"/><polyline data-pipe-id="16" data-hydraulic-inside-diameter-in="1.515" points="555.89,208.38 595.89,200.38" stroke="#22d3ee" stroke-width="5"/><polyline data-pipe-id="17" data-hydraulic-inside-diameter-in="1.515" points="595.89,200.38 635.95,192.37" stroke="#22d3ee" stroke-width="5"/><polyline data-pipe-id="18" data-hydraulic-inside-diameter-in="1.515" points="635.95,192.37 673.92,184.77" stroke="#22d3ee" stroke-width="5"/><polyline data-pipe-id="19" data-hydraulic-inside-diameter-in="1.515" points="673.92,184.77 728.64,173.83" stroke="#22d3ee" stroke-width="5"/><polyline data-pipe-id="20" data-hydraulic-inside-diameter-in="1.515" points="728.64,173.83 760.91,167.38" stroke="#22d3ee" stroke-width="5"/><g transform="translate(700,470)"><rect x="0" y="0" width="20" height="8" fill="#22d3ee"/><text class="minor" x="30" y="9">1.515 in hydraulic I.D.</text><rect x="0" y="32" width="20" height="8" fill="#fb923c"/><text class="minor" x="30" y="41">2.729 in hydraulic I.D.</text></g></svg>